<?xml version="1.0" encoding="UTF-8"?> <svg xmlns="http://www.w3.org/2000/svg" width="1032" height="1075" viewBox="0 0 1032 1075" fill="none"> <path fill-rule="evenodd" clip-rule="evenodd" d="M766.19 844.5L768.153 847.214L715.354 885.397V1052.08H712.004V883.686L766.19 844.5Z" fill="white"></path> <path d="M770.089 827.736C764.293 831.936 762.984 840.062 767.185 845.857C771.386 851.652 779.514 852.961 785.31 848.761C791.107 844.561 792.416 836.435 788.215 830.64C784.014 824.845 775.886 823.536 770.089 827.736C775.886 823.536 764.293 831.936 770.089 827.736ZM783.515 846.293C779.077 849.509 772.857 848.512 769.641 844.062C766.424 839.626 767.434 833.407 771.872 830.191C776.31 826.976 782.531 827.985 785.747 832.422C788.963 836.859 787.953 843.078 783.515 846.293C787.953 843.078 779.077 849.509 783.515 846.293Z" fill="white"></path> <path d="M700.689 1062.01C700.689 1054.86 706.511 1049.04 713.667 1049.04C720.822 1049.04 726.644 1054.86 726.644 1062.01C726.644 1069.17 720.822 1074.99 713.667 1074.99C706.511 1074.99 700.689 1069.17 700.689 1062.01C700.689 1069.17 700.689 1054.86 700.689 1062.01ZM723.602 1062.01C723.602 1056.53 719.152 1052.08 713.667 1052.08C708.182 1052.08 703.731 1056.53 703.731 1062.01C703.731 1067.5 708.182 1071.95 713.667 1071.95C719.152 1071.95 723.602 1067.5 723.602 1062.01C723.602 1067.5 723.602 1056.53 723.602 1062.01Z" fill="white"></path> <path fill-rule="evenodd" clip-rule="evenodd" d="M608.035 761.408V858.519H604.685V761.408H608.035Z" fill="white"></path> <path d="M619.349 868.452C619.349 861.298 613.527 855.478 606.372 855.478C599.216 855.478 593.395 861.298 593.395 868.452C593.395 875.606 599.216 881.426 606.372 881.426C613.527 881.426 619.349 875.606 619.349 868.452C619.349 875.606 619.349 861.298 619.349 868.452ZM596.436 868.452C596.436 862.981 600.887 858.519 606.372 858.519C611.857 858.519 616.307 862.968 616.307 868.452C616.307 873.936 611.857 878.385 606.372 878.385C600.887 878.385 596.436 873.936 596.436 868.452C596.436 873.936 596.436 862.968 596.436 868.452Z" fill="white"></path> <path d="M619.349 751.475C619.349 758.629 613.527 764.449 606.372 764.449C599.216 764.449 593.395 758.629 593.395 751.475C593.395 744.322 599.216 738.501 606.372 738.501C613.527 738.501 619.349 744.322 619.349 751.475C619.349 758.629 619.349 744.322 619.349 751.475ZM596.436 751.475C596.436 756.959 600.887 761.408 606.372 761.408C611.857 761.408 616.307 756.959 616.307 751.475C616.307 745.992 611.857 741.542 606.372 741.542C600.887 741.542 596.436 745.992 596.436 751.475C596.436 756.959 596.436 745.992 596.436 751.475Z" fill="white"></path> <path fill-rule="evenodd" clip-rule="evenodd" d="M797.509 690.807L799.539 693.472L679.079 785.269V949.461H675.729V783.61L797.509 690.807Z" fill="white"></path> <path d="M798.561 675.801C792.864 680.138 791.767 688.301 796.105 693.984C800.443 699.68 808.608 700.776 814.305 696.439C820.002 692.102 821.099 683.939 816.761 678.243C812.423 672.548 804.258 671.451 798.561 675.788C792.864 680.125 804.258 671.451 798.561 675.788V675.801ZM812.448 694.021C808.085 697.337 801.852 696.502 798.523 692.14C795.207 687.778 796.042 681.546 800.406 678.218C804.769 674.903 811.002 675.738 814.33 680.1C817.646 684.462 816.811 690.694 812.448 694.021C816.811 690.706 808.085 697.337 812.448 694.021Z" fill="white"></path> <path d="M664.428 962.448C664.428 955.294 670.249 949.474 677.405 949.474C684.56 949.474 690.382 955.294 690.382 962.448C690.382 969.601 684.56 975.421 677.405 975.421C670.249 975.421 664.428 969.601 664.428 962.448C664.428 969.601 664.428 955.294 664.428 962.448ZM687.34 962.448C687.34 956.964 682.89 952.515 677.405 952.515C671.92 952.515 667.469 956.964 667.469 962.448C667.469 967.931 671.92 972.38 677.405 972.38C682.89 972.38 687.34 967.931 687.34 962.448C687.34 967.931 687.34 956.964 687.34 962.448Z" fill="white"></path> <path fill-rule="evenodd" clip-rule="evenodd" d="M639.628 1000.45V842.305H642.978V1000.45H639.628Z" fill="white"></path> <path d="M628.325 832.372C628.325 839.526 634.146 845.346 641.302 845.346C648.457 845.346 654.279 839.526 654.279 832.372C654.279 825.218 648.457 819.398 641.302 819.398C634.146 819.398 628.325 825.218 628.325 832.372C628.325 839.526 628.325 825.218 628.325 832.372ZM651.237 832.372C651.237 837.843 646.787 842.305 641.302 842.305C635.817 842.305 631.366 837.856 631.366 832.372C631.366 826.888 635.817 822.439 641.302 822.439C646.787 822.439 651.237 826.888 651.237 832.372C651.237 837.856 651.237 826.888 651.237 832.372Z" fill="white"></path> <path d="M628.325 1010.38C628.325 1003.23 634.146 997.406 641.302 997.406C648.457 997.406 654.279 1003.23 654.279 1010.38C654.279 1017.53 648.457 1023.35 641.302 1023.35C634.146 1023.35 628.325 1017.53 628.325 1010.38C628.325 1017.53 628.325 1003.23 628.325 1010.38ZM651.237 1010.38C651.237 1004.91 646.787 1000.45 641.302 1000.45C635.817 1000.45 631.366 1004.9 631.366 1010.38C631.366 1015.86 635.817 1020.31 641.302 1020.31C646.787 1020.31 651.237 1015.86 651.237 1010.38C651.237 1015.86 651.237 1004.9 651.237 1010.38Z" fill="white"></path> <path fill-rule="evenodd" clip-rule="evenodd" d="M74.8447 446.655L77.314 444.392L159.977 534.554H275.816L317.641 511.55L350.265 513.169L350.099 516.515L318.424 514.943L276.677 537.904H158.503L74.8447 446.655Z" fill="white"></path> <path d="M57.73 444.726C62.5668 449.998 70.7944 450.359 76.0675 445.524C81.3406 440.688 81.7021 432.463 76.8653 427.191C72.0285 421.919 63.8009 421.558 58.5278 426.393C53.2547 431.229 52.8932 439.454 57.73 444.726C62.5668 449.998 52.8932 439.454 57.73 444.726ZM74.6214 429.247C78.3238 433.285 78.0496 439.579 74.0106 443.28C69.9716 446.982 63.6763 446.708 59.9739 442.67C56.2714 438.632 56.5457 432.338 60.5847 428.636C64.6237 424.935 70.919 425.209 74.6214 429.247C78.3238 433.285 70.919 425.209 74.6214 429.247Z" fill="white"></path> <path d="M359.47 528.302C352.327 527.953 346.792 521.847 347.154 514.693C347.503 507.552 353.611 502.018 360.767 502.38C367.91 502.728 373.445 508.835 373.083 515.989C372.734 523.13 366.626 528.664 359.47 528.302C366.613 528.651 352.327 527.953 359.47 528.302ZM360.605 505.42C355.132 505.146 350.457 509.371 350.196 514.842C349.921 520.314 354.147 524.987 359.62 525.249C365.093 525.523 369.767 521.298 370.029 515.827C370.303 510.356 366.077 505.682 360.605 505.42C366.077 505.695 355.132 505.146 360.605 505.42Z" fill="white"></path> <path fill-rule="evenodd" clip-rule="evenodd" d="M711.839 809.396L773.826 768.64L771.986 765.841L708.489 807.59V824.657H711.839V809.396Z" fill="white"></path> <path d="M723.153 834.59C723.153 827.436 717.332 821.616 710.176 821.616C703.021 821.616 697.199 827.436 697.199 834.59C697.199 841.744 703.021 847.564 710.176 847.564C717.332 847.564 723.153 841.744 723.153 834.59C723.153 841.744 723.153 827.436 723.153 834.59ZM700.241 834.59C700.241 829.106 704.691 824.657 710.176 824.657C715.661 824.657 720.112 829.106 720.112 834.59C720.112 840.074 715.661 844.523 710.176 844.523C704.691 844.523 700.241 840.074 700.241 834.59C700.241 840.074 700.241 829.106 700.241 834.59Z" fill="white"></path> <path d="M788.339 772.625C782.355 776.563 774.29 774.893 770.363 768.911C766.424 762.929 768.094 754.865 774.078 750.94C780.062 747.001 788.127 748.671 792.054 754.654C795.993 760.636 794.323 768.699 788.339 772.625C794.323 768.687 782.355 776.563 788.339 772.625ZM775.748 753.482C771.173 756.498 769.902 762.667 772.906 767.241C775.923 771.815 782.094 773.086 786.669 770.083C791.244 767.067 792.515 760.897 789.511 756.324C786.494 751.75 780.323 750.479 775.748 753.482C780.323 750.466 771.173 756.498 775.748 753.482Z" fill="white"></path> <path fill-rule="evenodd" clip-rule="evenodd" d="M965.36 560.695L967.426 632.991L876.57 721.719H845.259V718.369H875.206L964.035 631.619L962.012 560.791L965.36 560.695Z" fill="white"></path> <path d="M834.101 733.018C841.257 733.018 847.078 727.198 847.078 720.044C847.078 712.891 841.257 707.07 834.101 707.07C826.946 707.07 821.124 712.891 821.124 720.044C821.124 727.198 826.946 733.018 834.101 733.018C841.257 733.018 826.946 733.018 834.101 733.018ZM834.101 710.111C839.586 710.111 844.037 714.561 844.037 720.044C844.037 725.528 839.586 729.977 834.101 729.977C828.616 729.977 824.166 725.528 824.166 720.044C824.166 714.561 828.616 710.111 834.101 710.111C839.586 710.111 828.616 710.111 834.101 710.111Z" fill="white"></path> <path d="M976.663 550.486C976.838 557.64 971.166 563.61 964.01 563.784C956.855 563.959 950.884 558.288 950.709 551.134C950.534 543.981 956.206 538.011 963.362 537.836C970.517 537.662 976.489 543.333 976.663 550.486C976.838 557.64 976.489 543.333 976.663 550.486ZM953.751 551.06C953.888 556.531 958.45 560.88 963.935 560.743C969.408 560.606 973.759 556.045 973.622 550.561C973.484 545.09 968.922 540.74 963.437 540.877C957.964 541.014 953.614 545.576 953.751 551.06C953.888 556.531 953.614 545.588 953.751 551.06Z" fill="white"></path> <path fill-rule="evenodd" clip-rule="evenodd" d="M695.029 383.802H852.838V387.152H696.229L657.6 418.921V500.505L726.735 561.959L724.509 564.463L654.25 502.01V417.339L695.029 383.802Z" fill="white"></path> <path d="M743.948 562.139C738.6 557.378 730.372 557.864 725.623 563.211C720.861 568.557 721.347 576.783 726.695 581.531C732.043 586.292 740.27 585.806 745.02 580.459C749.782 575.113 749.296 566.887 743.948 562.139C749.296 566.899 738.6 557.378 743.948 562.139ZM728.714 579.263C724.626 575.624 724.252 569.33 727.892 565.242C731.532 561.154 737.827 560.78 741.916 564.419C746.005 568.059 746.379 574.352 742.739 578.44C739.099 582.528 732.803 582.902 728.714 579.263C732.803 582.902 724.626 575.624 728.714 579.263Z" fill="white"></path> <path d="M862.774 398.451C855.618 398.451 849.797 392.631 849.797 385.477C849.797 378.324 855.618 372.503 862.774 372.503C869.929 372.503 875.751 378.324 875.751 385.477C875.751 392.631 869.929 398.451 862.774 398.451C869.929 398.451 855.618 398.451 862.774 398.451ZM862.774 375.544C857.289 375.544 852.839 379.994 852.839 385.477C852.839 390.961 857.289 395.41 862.774 395.41C868.259 395.41 872.709 390.961 872.709 385.477C872.709 379.994 868.259 375.544 862.774 375.544C868.259 375.544 857.289 375.544 862.774 375.544Z" fill="white"></path> <path fill-rule="evenodd" clip-rule="evenodd" d="M1017.34 456.5L971.577 410.74L973.945 408.372L1020.69 455.112V553.44H1017.34V456.5Z" fill="white"></path> <path d="M956.557 411.712C961.618 416.772 969.858 416.772 974.919 411.712C979.98 406.652 979.98 398.414 974.919 393.354C969.858 388.294 961.618 388.294 956.557 393.354C951.495 398.414 951.495 406.652 956.557 411.712C961.618 416.772 951.495 406.652 956.557 411.712ZM972.762 395.51C976.639 399.386 976.639 405.68 972.762 409.556C968.886 413.432 962.59 413.432 958.713 409.556C954.836 405.68 954.836 399.386 958.713 395.51C962.59 391.634 968.886 391.634 972.762 395.51C976.639 399.386 968.886 391.634 972.762 395.51Z" fill="white"></path> <path d="M1006.03 563.373C1006.03 556.219 1011.86 550.399 1019.01 550.399C1026.17 550.399 1031.99 556.219 1031.99 563.373C1031.99 570.526 1026.17 576.347 1019.01 576.347C1011.86 576.347 1006.03 570.526 1006.03 563.373C1006.03 570.526 1006.03 556.219 1006.03 563.373ZM1028.95 563.373C1028.95 557.902 1024.5 553.44 1019.01 553.44C1013.53 553.44 1009.08 557.889 1009.08 563.373C1009.08 568.856 1013.53 573.306 1019.01 573.306C1024.5 573.306 1028.95 568.856 1028.95 563.373C1028.95 568.856 1028.95 557.889 1028.95 563.373Z" fill="white"></path> <path fill-rule="evenodd" clip-rule="evenodd" d="M444.902 11.2861H645.989V14.6361H446.069L396.101 54.2546L394.02 51.6296L444.902 11.2861Z" fill="white"></path> <path d="M392.955 71.1753C398.564 66.726 399.512 58.5504 395.061 52.9421C390.611 47.3337 382.433 46.3866 376.824 50.8358C371.214 55.2851 370.267 63.4607 374.717 69.069C379.167 74.6774 387.345 75.6245 392.955 71.1753C398.564 66.726 387.345 75.6245 392.955 71.1753ZM378.718 53.2287C383.007 49.8263 389.265 50.5492 392.68 54.8364C396.084 59.1236 395.361 65.38 391.072 68.7949C386.784 72.1972 380.526 71.4744 377.11 67.1871C373.707 62.8999 374.43 56.6435 378.718 53.2287C383.007 49.8263 374.43 56.6311 378.718 53.2287Z" fill="white"></path> <path d="M655.925 25.9478C648.77 25.9478 642.948 20.1276 642.948 12.9739C642.948 5.82017 648.77 0 655.925 0C663.081 0 668.903 5.82017 668.903 12.9739C668.903 20.1276 663.081 25.9478 655.925 25.9478C663.081 25.9478 648.77 25.9478 655.925 25.9478ZM655.925 3.04095C650.44 3.04095 645.99 7.4902 645.99 12.9739C645.99 18.4576 650.44 22.9068 655.925 22.9068C661.41 22.9068 665.861 18.4576 665.861 12.9739C665.861 7.4902 661.41 3.04095 655.925 3.04095C661.41 3.04095 650.44 3.04095 655.925 3.04095Z" fill="white"></path> <path fill-rule="evenodd" clip-rule="evenodd" d="M176.768 490.415L124.61 438.27L126.979 435.901L179.137 488.046L176.768 490.415Z" fill="white"></path> <path d="M107.432 437.086C112.493 442.146 120.733 442.146 125.794 437.086C130.855 432.026 130.855 423.788 125.794 418.728C120.733 413.668 112.493 413.668 107.432 418.728C102.37 423.788 102.37 432.026 107.432 437.086C112.493 442.146 102.37 432.026 107.432 437.086ZM123.637 420.884C127.514 424.76 127.514 431.054 123.637 434.93C119.761 438.806 113.465 438.806 109.588 434.93C105.711 431.054 105.711 424.76 109.588 420.884C113.465 417.008 119.761 417.008 123.637 420.884C127.514 424.76 119.761 417.008 123.637 420.884Z" fill="white"></path> <path d="M175.796 505.433C170.735 500.373 170.735 492.135 175.796 487.075C180.857 482.015 189.097 482.015 194.158 487.075C199.22 492.135 199.22 500.373 194.158 505.433C189.097 510.493 180.857 510.493 175.796 505.433C180.857 510.493 170.735 500.373 175.796 505.433ZM192.002 489.231C188.125 485.355 181.829 485.355 177.953 489.231C174.076 493.107 174.076 499.401 177.953 503.277C181.829 507.152 188.125 507.152 192.002 503.277C195.879 499.401 195.879 493.107 192.002 489.231C195.879 493.107 188.125 485.355 192.002 489.231Z" fill="white"></path> <path fill-rule="evenodd" clip-rule="evenodd" d="M240.358 490.665L168.99 419.314L171.358 416.945L242.726 488.295L240.358 490.665Z" fill="white"></path> <path d="M153.968 420.274C159.029 425.334 167.269 425.334 172.33 420.274C177.391 415.214 177.391 406.976 172.33 401.916C167.269 396.856 159.029 396.856 153.968 401.916C148.907 406.976 148.907 415.214 153.968 420.274C159.029 425.334 148.907 415.214 153.968 420.274ZM170.174 404.072C174.051 407.948 174.051 414.242 170.174 418.118C166.297 421.994 160.001 421.994 156.124 418.118C152.247 414.242 152.247 407.948 156.124 404.072C160.001 400.196 166.297 400.196 170.174 404.072C174.051 407.948 166.297 400.196 170.174 404.072Z" fill="white"></path> <path d="M239.385 505.669C234.324 500.609 234.324 492.371 239.385 487.312C244.446 482.252 252.687 482.252 257.748 487.312C262.809 492.371 262.809 500.609 257.748 505.669C252.687 510.729 244.446 510.729 239.385 505.669C244.446 510.729 234.324 500.609 239.385 505.669ZM255.591 489.468C251.714 485.592 245.419 485.592 241.542 489.468C237.665 493.344 237.665 499.637 241.542 503.513C245.419 507.389 251.714 507.389 255.591 503.513C259.468 499.637 259.468 493.344 255.591 489.468C259.468 493.344 251.714 485.592 255.591 489.468Z" fill="white"></path> <path fill-rule="evenodd" clip-rule="evenodd" d="M518.732 484.637H424.082V481.287H522.082V536.922L442.058 616.926L439.69 614.557L518.732 535.535V484.637Z" fill="white"></path> <path d="M414.147 495.936C421.303 495.936 427.124 490.116 427.124 482.962C427.124 475.808 421.303 469.988 414.147 469.988C406.992 469.988 401.17 475.808 401.17 482.962C401.17 490.116 406.992 495.936 414.147 495.936C421.303 495.936 406.992 495.936 414.147 495.936ZM414.147 473.029C419.632 473.029 424.082 477.478 424.082 482.962C424.082 488.446 419.632 492.895 414.147 492.895C408.662 492.895 404.212 488.446 404.212 482.962C404.212 477.478 408.662 473.029 414.147 473.029C419.632 473.029 408.662 473.029 414.147 473.029Z" fill="white"></path> <path d="M424.667 613.586C429.728 608.526 437.968 608.526 443.029 613.586C448.091 618.646 448.091 626.884 443.029 631.944C437.968 637.004 429.728 637.004 424.667 631.944C419.606 626.884 419.606 618.646 424.667 613.586C429.728 608.526 419.606 618.646 424.667 613.586ZM440.873 629.788C444.75 625.912 444.75 619.618 440.873 615.742C436.996 611.866 430.701 611.866 426.824 615.742C422.947 619.618 422.947 625.912 426.824 629.788C430.701 633.664 436.996 633.664 440.873 629.788C444.75 625.912 436.996 633.664 440.873 629.788Z" fill="white"></path> <path fill-rule="evenodd" clip-rule="evenodd" d="M994.046 497.619V591.913H990.696V497.619H994.046Z" fill="white"></path> <path d="M1005.36 603.067C1005.36 595.913 999.538 590.093 992.383 590.093C985.227 590.093 979.406 595.913 979.406 603.067C979.406 610.221 985.227 616.041 992.383 616.041C999.538 616.041 1005.36 610.221 1005.36 603.067C1005.36 610.221 1005.36 595.913 1005.36 603.067ZM982.447 603.067C982.447 597.583 986.898 593.134 992.383 593.134C997.868 593.134 1002.32 597.583 1002.32 603.067C1002.32 608.551 997.868 613 992.383 613C986.898 613 982.447 608.551 982.447 603.067C982.447 608.551 982.447 597.583 982.447 603.067Z" fill="white"></path> <path d="M1005.36 487.686C1005.36 494.84 999.538 500.66 992.383 500.66C985.227 500.66 979.406 494.84 979.406 487.686C979.406 480.532 985.227 474.712 992.383 474.712C999.538 474.712 1005.36 480.532 1005.36 487.686C1005.36 494.84 1005.36 480.532 1005.36 487.686ZM982.447 487.686C982.447 493.169 986.898 497.619 992.383 497.619C997.868 497.619 1002.32 493.169 1002.32 487.686C1002.32 482.202 997.868 477.753 992.383 477.753C986.898 477.753 982.447 482.202 982.447 487.686C982.447 493.169 982.447 482.202 982.447 487.686Z" fill="white"></path> <path fill-rule="evenodd" clip-rule="evenodd" d="M960.748 170.261H893.054V166.911H962.585L992.226 213.375V348.842H910.572L870.191 294.324L872.883 292.33L912.26 345.492H988.876V214.352L960.748 170.261Z" fill="white"></path> <path d="M880.077 181.56C887.233 181.56 893.054 175.739 893.054 168.586C893.054 161.432 887.233 155.612 880.077 155.612C872.922 155.612 867.1 161.432 867.1 168.586C867.1 175.739 872.922 181.56 880.077 181.56C887.233 181.56 872.922 181.56 880.077 181.56ZM880.077 158.653C885.562 158.653 890.013 163.102 890.013 168.586C890.013 174.069 885.562 178.519 880.077 178.519C874.592 178.519 870.142 174.069 870.142 168.586C870.142 163.102 874.592 158.653 880.077 158.653C885.562 158.653 874.592 158.653 880.077 158.653Z" fill="white"></path> <path d="M876.062 277.611C880.326 283.356 879.104 291.507 873.357 295.769C867.61 300.032 859.458 298.81 855.194 293.065C850.931 287.32 852.152 279.169 857.899 274.906C863.646 270.644 871.799 271.866 876.062 277.611C880.326 283.356 871.799 271.866 876.062 277.611ZM857.65 291.245C860.916 295.645 867.137 296.579 871.55 293.314C875.95 290.061 876.885 283.83 873.619 279.418C870.353 275.019 864.132 274.084 859.719 277.349C855.319 280.614 854.384 286.833 857.65 291.245C860.916 295.645 854.384 286.846 857.65 291.245Z" fill="white"></path> <path fill-rule="evenodd" clip-rule="evenodd" d="M1020.69 291.32V363.356H1017.34V291.32H1020.69Z" fill="white"></path> <path d="M1032 373.288C1032 366.135 1026.18 360.314 1019.02 360.314C1011.87 360.314 1006.05 366.135 1006.05 373.288C1006.05 380.442 1011.87 386.262 1019.02 386.262C1026.18 386.262 1032 380.442 1032 373.288C1032 380.442 1032 366.135 1032 373.288ZM1009.09 373.288C1009.09 367.805 1013.54 363.355 1019.02 363.355C1024.51 363.355 1028.96 367.805 1028.96 373.288C1028.96 378.772 1024.51 383.221 1019.02 383.221C1013.54 383.221 1009.09 378.772 1009.09 373.288C1009.09 378.772 1009.09 367.805 1009.09 373.288Z" fill="white"></path> <path d="M1032 281.387C1032 288.541 1026.18 294.361 1019.02 294.361C1011.87 294.361 1006.05 288.541 1006.05 281.387C1006.05 274.233 1011.87 268.413 1019.02 268.413C1026.18 268.413 1032 274.233 1032 281.387C1032 288.541 1032 274.233 1032 281.387ZM1009.09 281.387C1009.09 286.858 1013.54 291.32 1019.02 291.32C1024.51 291.32 1028.96 286.871 1028.96 281.387C1028.96 275.903 1024.51 271.454 1019.02 271.454C1013.54 271.454 1009.09 275.903 1009.09 281.387C1009.09 286.871 1009.09 275.903 1009.09 281.387Z" fill="white"></path> <path fill-rule="evenodd" clip-rule="evenodd" d="M292.546 258.652L353.565 207.583L351.415 205.014L289.196 257.087V311.287L384.163 412.776H585.979V409.426H385.616L292.546 309.964V258.652Z" fill="white"></path> <path d="M595.914 398.127C588.759 398.127 582.937 403.947 582.937 411.101C582.937 418.255 588.759 424.075 595.914 424.075C603.07 424.075 608.891 418.255 608.891 411.101C608.891 403.947 603.07 398.127 595.914 398.127C603.07 398.127 588.759 398.127 595.914 398.127ZM595.914 421.034C590.429 421.034 585.979 416.585 585.979 411.101C585.979 405.617 590.429 401.168 595.914 401.168C601.399 401.168 605.85 405.617 605.85 411.101C605.85 416.585 601.399 421.034 595.914 421.034C601.399 421.034 590.429 421.034 595.914 421.034Z" fill="white"></path> <path d="M368.446 209.875C362.961 214.474 354.758 213.739 350.158 208.255C345.558 202.771 346.294 194.571 351.779 189.972C357.264 185.373 365.467 186.109 370.067 191.592C374.667 197.076 373.931 205.276 368.446 209.875C373.931 205.276 362.961 214.474 368.446 209.875ZM353.736 192.315C349.535 195.83 348.974 202.111 352.502 206.311C356.017 210.511 362.3 211.072 366.501 207.545C370.702 204.03 371.263 197.749 367.735 193.549C364.22 189.349 357.937 188.788 353.736 192.315C357.937 188.801 349.535 195.83 353.736 192.315Z" fill="white"></path> <path fill-rule="evenodd" clip-rule="evenodd" d="M583.792 283.062H424.082V279.712H587.142V350.83H583.792V283.062Z" fill="white"></path> <path d="M414.147 294.361C421.303 294.361 427.124 288.541 427.124 281.387C427.124 274.233 421.303 268.413 414.147 268.413C406.992 268.413 401.17 274.233 401.17 281.387C401.17 288.541 406.992 294.361 414.147 294.361C421.303 294.361 406.992 294.361 414.147 294.361ZM414.147 271.454C419.632 271.454 424.082 275.903 424.082 281.387C424.082 286.871 419.632 291.32 414.147 291.32C408.662 291.32 404.212 286.871 404.212 281.387C404.212 275.903 408.662 271.454 414.147 271.454C419.632 271.454 408.662 271.454 414.147 271.454Z" fill="white"></path> <path d="M572.491 360.763C572.491 353.61 578.312 347.79 585.468 347.79C592.623 347.79 598.445 353.61 598.445 360.763C598.445 367.917 592.623 373.737 585.468 373.737C578.312 373.737 572.491 367.917 572.491 360.763C572.491 367.917 572.491 353.61 572.491 360.763ZM595.403 360.763C595.403 355.292 590.953 350.831 585.468 350.831C579.983 350.831 575.532 355.28 575.532 360.763C575.532 366.247 579.983 370.696 585.468 370.696C590.953 370.696 595.403 366.247 595.403 360.763C595.403 366.247 595.403 355.28 595.403 360.763Z" fill="white"></path> <path fill-rule="evenodd" clip-rule="evenodd" d="M413.636 336.107H522.082V373.8H518.732V339.457H413.636V336.107Z" fill="white"></path> <path d="M533.397 383.733C533.397 376.579 527.575 370.759 520.42 370.759C513.264 370.759 507.442 376.579 507.442 383.733C507.442 390.886 513.264 396.707 520.42 396.707C527.575 396.707 533.397 390.886 533.397 383.733C533.397 390.886 533.397 376.579 533.397 383.733ZM510.484 383.733C510.484 378.261 514.934 373.8 520.42 373.8C525.905 373.8 530.355 378.249 530.355 383.733C530.355 389.216 525.905 393.666 520.42 393.666C514.934 393.666 510.484 389.216 510.484 383.733C510.484 389.216 510.484 378.249 510.484 383.733Z" fill="white"></path> <path d="M403.699 324.808C410.854 324.808 416.676 330.628 416.676 337.782C416.676 344.936 410.854 350.756 403.699 350.756C396.543 350.756 390.722 344.936 390.722 337.782C390.722 330.628 396.543 324.808 403.699 324.808C410.854 324.808 396.543 324.808 403.699 324.808ZM403.699 347.715C409.184 347.715 413.634 343.266 413.634 337.782C413.634 332.298 409.184 327.849 403.699 327.849C398.214 327.849 393.763 332.298 393.763 337.782C393.763 343.266 398.214 347.715 403.699 347.715C409.184 347.715 398.214 347.715 403.699 347.715Z" fill="white"></path> <path fill-rule="evenodd" clip-rule="evenodd" d="M106.684 387.152H22.9121V383.802H106.684V387.152Z" fill="white"></path> <path d="M12.9771 398.451C20.1326 398.451 25.9543 392.631 25.9543 385.477C25.9543 378.324 20.1326 372.503 12.9771 372.503C5.82163 372.503 0 378.324 0 385.477C0 392.631 5.82163 398.451 12.9771 398.451C20.1326 398.451 5.82163 398.451 12.9771 398.451ZM12.9771 375.544C18.4622 375.544 22.9126 379.994 22.9126 385.477C22.9126 390.961 18.4622 395.41 12.9771 395.41C7.49208 395.41 3.04171 390.961 3.04171 385.477C3.04171 379.994 7.49208 375.544 12.9771 375.544C18.4622 375.544 7.49208 375.544 12.9771 375.544Z" fill="white"></path> <path d="M116.621 398.451C109.465 398.451 103.644 392.631 103.644 385.477C103.644 378.324 109.465 372.503 116.621 372.503C123.776 372.503 129.598 378.324 129.598 385.477C129.598 392.631 123.776 398.451 116.621 398.451C123.776 398.451 109.465 398.451 116.621 398.451ZM116.621 375.544C111.136 375.544 106.685 379.994 106.685 385.477C106.685 390.961 111.136 395.41 116.621 395.41C122.106 395.41 126.556 390.961 126.556 385.477C126.556 379.994 122.106 375.544 116.621 375.544C122.106 375.544 111.136 375.544 116.621 375.544Z" fill="white"></path> <path fill-rule="evenodd" clip-rule="evenodd" d="M204.119 307.19H123.401V303.84H204.119V307.19Z" fill="white"></path> <path d="M110.423 318.489C117.579 318.489 123.401 312.669 123.401 305.515C123.401 298.362 117.579 292.542 110.423 292.542C103.268 292.542 97.4463 298.362 97.4463 305.515C97.4463 312.669 103.268 318.489 110.423 318.489C117.579 318.489 103.268 318.489 110.423 318.489ZM110.423 295.582C115.908 295.582 120.359 300.032 120.359 305.515C120.359 310.999 115.908 315.448 110.423 315.448C104.938 315.448 100.488 310.999 100.488 305.515C100.488 300.032 104.938 295.582 110.423 295.582C115.908 295.582 104.938 295.582 110.423 295.582Z" fill="white"></path> <path d="M214.054 318.489C206.898 318.489 201.077 312.669 201.077 305.515C201.077 298.362 206.898 292.542 214.054 292.542C221.209 292.542 227.031 298.362 227.031 305.515C227.031 312.669 221.209 318.489 214.054 318.489C221.209 318.489 206.898 318.489 214.054 318.489ZM214.054 295.582C208.569 295.582 204.118 300.032 204.118 305.515C204.118 310.999 208.569 315.448 214.054 315.448C219.539 315.448 223.989 310.999 223.989 305.515C223.989 300.032 219.539 295.582 214.054 295.582C219.539 295.582 208.569 295.582 214.054 295.582Z" fill="white"></path> <path fill-rule="evenodd" clip-rule="evenodd" d="M555.748 455.474H471.988V452.124H555.748V455.474Z" fill="white"></path> <path d="M462.053 466.773C469.209 466.773 475.03 460.953 475.03 453.799C475.03 446.645 469.209 440.825 462.053 440.825C454.898 440.825 449.076 446.645 449.076 453.799C449.076 460.953 454.898 466.773 462.053 466.773C469.209 466.773 454.898 466.773 462.053 466.773ZM462.053 443.866C467.538 443.866 471.989 448.315 471.989 453.799C471.989 459.283 467.538 463.732 462.053 463.732C456.568 463.732 452.118 459.283 452.118 453.799C452.118 448.315 456.568 443.866 462.053 443.866C467.538 443.866 456.568 443.866 462.053 443.866Z" fill="white"></path> <path d="M565.683 466.773C558.528 466.773 552.706 460.953 552.706 453.799C552.706 446.645 558.528 440.825 565.683 440.825C572.839 440.825 578.66 446.645 578.66 453.799C578.66 460.953 572.839 466.773 565.683 466.773C572.839 466.773 558.528 466.773 565.683 466.773ZM565.683 443.866C560.198 443.866 555.748 448.315 555.748 453.799C555.748 459.283 560.198 463.732 565.683 463.732C571.168 463.732 575.619 459.283 575.619 453.799C575.619 448.315 571.168 443.866 565.683 443.866C571.168 443.866 560.198 443.866 565.683 443.866Z" fill="white"></path> <path fill-rule="evenodd" clip-rule="evenodd" d="M565.97 97.1363L528.622 134.488L526.253 132.119L563.601 94.7676L565.97 97.1363Z" fill="white"></path> <path d="M529.595 149.505C534.656 144.445 534.656 136.207 529.595 131.147C524.534 126.087 516.294 126.087 511.232 131.147C506.171 136.207 506.171 144.445 511.232 149.505C516.294 154.565 524.534 154.565 529.595 149.505C534.656 144.445 524.534 154.565 529.595 149.505ZM513.389 133.303C517.266 129.427 523.561 129.427 527.438 133.303C531.315 137.179 531.315 143.473 527.438 147.349C523.561 151.225 517.266 151.225 513.389 147.349C509.512 143.473 509.512 137.179 513.389 133.303C517.266 129.427 509.512 137.179 513.389 133.303Z" fill="white"></path> <path d="M583.148 95.9516C578.086 101.012 569.846 101.012 564.785 95.9516C559.724 90.8917 559.724 82.6537 564.785 77.5938C569.846 72.5338 578.086 72.5338 583.148 77.5938C588.209 82.6537 588.209 90.8917 583.148 95.9516C588.209 90.8917 578.086 101.012 583.148 95.9516ZM566.942 79.7499C563.065 83.6258 563.065 89.9196 566.942 93.7955C570.819 97.6715 577.114 97.6715 580.991 93.7955C584.868 89.9196 584.868 83.6258 580.991 79.7499C577.114 75.8739 570.819 75.8739 566.942 79.7499C570.819 75.8739 563.065 83.6258 566.942 79.7499Z" fill="white"></path> <path fill-rule="evenodd" clip-rule="evenodd" d="M66.473 271.546L111.577 217L108.996 214.865L63.123 270.341V339.457H175.048V336.107H66.473V271.546Z" fill="white"></path> <path d="M184.971 324.808C177.816 324.808 171.994 330.628 171.994 337.782C171.994 344.936 177.816 350.756 184.971 350.756C192.127 350.756 197.948 344.936 197.948 337.782C197.948 330.628 192.127 324.808 184.971 324.808C192.127 324.808 177.816 324.808 184.971 324.808ZM184.971 347.715C179.486 347.715 175.036 343.266 175.036 337.782C175.036 332.298 179.486 327.849 184.971 327.849C190.456 327.849 194.907 332.298 194.907 337.782C194.907 343.266 190.456 347.715 184.971 347.715C190.456 347.715 179.486 347.715 184.971 347.715Z" fill="white"></path> <path d="M126.617 216.543C122.055 222.064 113.852 222.837 108.342 218.275C102.82 213.714 102.047 205.513 106.609 200.005C111.172 194.484 119.375 193.711 124.885 198.272C130.407 202.834 131.18 211.034 126.617 216.543C131.18 211.022 122.055 222.064 126.617 216.543ZM108.953 201.949C105.463 206.174 106.061 212.443 110.274 215.932C114.5 219.422 120.771 218.824 124.261 214.611C127.752 210.386 127.153 204.117 122.94 200.628C118.714 197.138 112.444 197.736 108.953 201.949C112.444 197.724 105.463 206.174 108.953 201.949Z" fill="white"></path> <path fill-rule="evenodd" clip-rule="evenodd" d="M804.752 202.417L890.073 206.17L889.925 209.517L808.102 205.917V288.662L769.962 312.347L768.195 309.501L804.752 286.799V202.417Z" fill="white"></path> <path d="M900.496 195.306C893.34 194.994 887.269 200.553 886.958 207.706C886.646 214.86 892.206 220.929 899.362 221.241C906.517 221.553 912.588 215.994 912.9 208.84C913.211 201.687 907.651 195.617 900.496 195.306C907.651 195.617 893.34 194.994 900.496 195.306ZM899.486 218.2C894.014 217.963 889.763 213.315 890 207.843C890.236 202.372 894.886 198.122 900.359 198.359C905.831 198.596 910.082 203.245 909.845 208.716C909.609 214.187 904.959 218.437 899.486 218.2C904.959 218.437 894.014 217.963 899.486 218.2Z" fill="white"></path> <path d="M752.5 305.952C758.583 302.175 766.599 304.045 770.376 310.127C774.153 316.209 772.284 324.222 766.2 327.999C760.117 331.775 752.101 329.905 748.324 323.824C744.547 317.742 746.417 309.728 752.5 305.952C758.583 302.175 746.417 309.728 752.5 305.952ZM764.592 325.406C769.242 322.515 770.675 316.383 767.783 311.735C764.891 307.086 758.758 305.653 754.108 308.544C749.458 311.435 748.025 317.567 750.917 322.216C753.809 326.864 759.942 328.298 764.592 325.406C769.242 322.515 759.942 328.298 764.592 325.406Z" fill="white"></path> <path fill-rule="evenodd" clip-rule="evenodd" d="M723.615 345.491H824.166V348.841H723.615V345.491Z" fill="white"></path> <path d="M834.101 334.192C826.946 334.192 821.124 340.013 821.124 347.166C821.124 354.32 826.946 360.14 834.101 360.14C841.257 360.14 847.078 354.32 847.078 347.166C847.078 340.013 841.257 334.192 834.101 334.192C841.257 334.192 826.946 334.192 834.101 334.192ZM834.101 357.099C828.616 357.099 824.166 352.65 824.166 347.166C824.166 341.683 828.616 337.233 834.101 337.233C839.586 337.233 844.037 341.683 844.037 347.166C844.037 352.65 839.586 357.099 834.101 357.099C839.586 357.099 828.616 357.099 834.101 357.099Z" fill="white"></path> <path d="M713.68 334.192C720.836 334.192 726.657 340.013 726.657 347.166C726.657 354.32 720.836 360.14 713.68 360.14C706.525 360.14 700.703 354.32 700.703 347.166C700.703 340.013 706.525 334.192 713.68 334.192C720.836 334.192 706.525 334.192 713.68 334.192ZM713.68 357.099C719.153 357.099 723.616 352.65 723.616 347.166C723.616 341.683 719.165 337.233 713.68 337.233C708.195 337.233 703.745 341.683 703.745 347.166C703.745 352.65 708.195 357.099 713.68 357.099C719.165 357.099 708.195 357.099 713.68 357.099Z" fill="white"></path> <path fill-rule="evenodd" clip-rule="evenodd" d="M686.922 62.6806H616.295V59.3306H688.156L784.954 141.847H834.613V145.197H783.72L686.922 62.6806Z" fill="white"></path> <path d="M606.36 73.9922C613.516 73.9922 619.338 68.172 619.338 61.0183C619.338 53.8646 613.516 48.0444 606.36 48.0444C599.205 48.0444 593.383 53.8646 593.383 61.0183C593.383 68.172 599.205 73.9922 606.36 73.9922C613.516 73.9922 599.205 73.9922 606.36 73.9922ZM606.36 51.0854C611.845 51.0854 616.296 55.5346 616.296 61.0183C616.296 66.502 611.845 70.9512 606.36 70.9512C600.875 70.9512 596.425 66.502 596.425 61.0183C596.425 55.5346 600.875 51.0854 606.36 51.0854C611.845 51.0854 600.875 51.0854 606.36 51.0854Z" fill="white"></path> <path d="M844.547 156.497C837.392 156.497 831.57 150.676 831.57 143.523C831.57 136.369 837.392 130.549 844.547 130.549C851.703 130.549 857.525 136.369 857.525 143.523C857.525 150.676 851.703 156.497 844.547 156.497C851.703 156.497 837.392 156.497 844.547 156.497ZM844.547 133.59C839.062 133.59 834.612 138.039 834.612 143.523C834.612 149.006 839.062 153.456 844.547 153.456C850.032 153.456 854.483 149.006 854.483 143.523C854.483 138.039 850.032 133.59 844.547 133.59C850.032 133.59 839.062 133.59 844.547 133.59Z" fill="white"></path> <path fill-rule="evenodd" clip-rule="evenodd" d="M943.262 299.201L907.298 258.771L909.801 256.544L945.765 296.974L943.262 299.201Z" fill="white"></path> <path d="M890.225 256.586C894.987 261.933 903.202 262.419 908.55 257.658C913.898 252.897 914.384 244.684 909.622 239.337C904.86 233.991 896.645 233.505 891.297 238.266C885.949 243.026 885.463 251.24 890.225 256.586C894.987 261.933 885.463 251.24 890.225 256.586ZM907.353 241.356C910.993 245.444 910.619 251.738 906.531 255.377C902.442 259.016 896.146 258.655 892.506 254.555C888.866 250.467 889.228 244.173 893.329 240.534C897.418 236.895 903.713 237.269 907.353 241.356C910.993 245.444 903.713 237.269 907.353 241.356Z" fill="white"></path> <path d="M941.409 314.14C936.647 308.793 937.133 300.568 942.481 295.819C947.829 291.059 956.056 291.545 960.806 296.891C965.568 302.238 965.082 310.463 959.734 315.212C954.386 319.972 946.158 319.486 941.409 314.14C946.171 319.486 936.647 308.793 941.409 314.14ZM958.537 298.91C954.897 294.822 948.601 294.448 944.513 298.088C940.424 301.727 940.05 308.021 943.69 312.108C947.33 316.196 953.625 316.57 957.714 312.931C961.803 309.292 962.177 302.998 958.537 298.91C962.177 302.998 954.897 294.822 958.537 298.91Z" fill="white"></path> <path fill-rule="evenodd" clip-rule="evenodd" d="M499.13 198.221L641.923 202.51L710.763 258.899H749.42V262.249H709.566L640.682 205.824L500.472 201.613L470.267 231.7L467.902 229.327L499.13 198.221Z" fill="white"></path> <path d="M471.216 246.715C476.29 241.668 476.302 233.43 471.253 228.358C466.205 223.285 457.964 223.273 452.891 228.32C447.817 233.368 447.805 241.606 452.853 246.678C457.902 251.75 466.142 251.763 471.216 246.715C476.29 241.668 466.142 251.763 471.216 246.715ZM455.047 230.489C458.924 226.625 465.232 226.638 469.097 230.514C472.961 234.39 472.949 240.696 469.072 244.559C465.195 248.423 458.887 248.41 455.023 244.534C451.158 240.658 451.171 234.352 455.047 230.489C458.924 226.625 451.171 234.352 455.047 230.489Z" fill="white"></path> <path d="M759.356 273.548C752.201 273.548 746.379 267.728 746.379 260.574C746.379 253.42 752.201 247.6 759.356 247.6C766.512 247.6 772.333 253.42 772.333 260.574C772.333 267.728 766.512 273.548 759.356 273.548C766.512 273.548 752.201 273.548 759.356 273.548ZM759.356 250.641C753.871 250.641 749.421 255.09 749.421 260.574C749.421 266.058 753.871 270.507 759.356 270.507C764.841 270.507 769.291 266.058 769.291 260.574C769.291 255.09 764.841 250.641 759.356 250.641C764.841 250.641 753.871 250.641 759.356 250.641Z" fill="white"></path> <path fill-rule="evenodd" clip-rule="evenodd" d="M665.078 110.261L712.922 145.843L710.923 148.531L663.079 112.949L665.078 110.261Z" fill="white"></path> <path d="M728.378 140.669C722.507 136.568 714.404 138.014 710.303 143.884C706.201 149.754 707.647 157.855 713.519 161.955C719.39 166.056 727.493 164.61 731.595 158.74C735.696 152.87 734.25 144.769 728.378 140.669C734.25 144.769 722.507 136.568 728.378 140.669ZM715.252 159.45C710.764 156.31 709.654 150.116 712.796 145.616C715.937 141.13 722.133 140.021 726.633 143.161C731.121 146.302 732.23 152.496 729.089 156.995C725.947 161.482 719.752 162.591 715.252 159.45C719.739 162.591 710.764 156.31 715.252 159.45Z" fill="white"></path> <path d="M663.355 95.2784C669.226 99.3787 670.66 107.48 666.571 113.35C662.47 119.22 654.367 120.653 648.495 116.565C642.624 112.465 641.19 104.364 645.279 98.4939C649.38 92.6238 657.483 91.1906 663.355 95.2784C669.226 99.3787 657.483 91.1781 663.355 95.2784ZM650.228 114.06C654.716 117.201 660.924 116.091 664.065 111.605C667.207 107.118 666.097 100.912 661.609 97.771C657.122 94.6304 650.914 95.7396 647.772 100.226C644.631 104.713 645.74 110.919 650.228 114.06C654.716 117.201 645.74 110.919 650.228 114.06Z" fill="white"></path> <path fill-rule="evenodd" clip-rule="evenodd" d="M635.935 144.258L637.993 141.615L710.715 198.242H760.104V201.592H709.564L635.935 144.258Z" fill="white"></path> <path d="M621.394 147.897C627.266 151.997 635.369 150.552 639.47 144.682C643.571 138.812 642.125 130.711 636.254 126.611C630.382 122.51 622.279 123.956 618.178 129.826C614.077 135.696 615.523 143.797 621.394 147.897C627.266 151.997 615.523 143.797 621.394 147.897ZM634.521 129.116C639.009 132.256 640.118 138.45 636.977 142.949C633.835 147.436 627.64 148.545 623.139 145.405C618.652 142.264 617.542 136.07 620.684 131.571C623.825 127.084 630.021 125.975 634.521 129.116C639.009 132.256 630.033 125.975 634.521 129.116Z" fill="white"></path> <path d="M770.04 212.891C762.884 212.891 757.062 207.071 757.062 199.917C757.062 192.764 762.884 186.943 770.04 186.943C777.195 186.943 783.017 192.764 783.017 199.917C783.017 207.071 777.195 212.891 770.04 212.891C777.195 212.891 762.884 212.891 770.04 212.891ZM770.04 189.984C764.555 189.984 760.104 194.434 760.104 199.917C760.104 205.401 764.555 209.85 770.04 209.85C775.525 209.85 779.975 205.401 779.975 199.917C779.975 194.434 775.525 189.984 770.04 189.984C775.525 189.984 764.555 189.984 770.04 189.984Z" fill="white"></path> <path fill-rule="evenodd" clip-rule="evenodd" d="M712.004 434.277H897.304V437.627H715.354V482.212L753.052 515.823L750.823 518.324L712.004 483.713V434.277Z" fill="white"></path> <path d="M907.241 422.978C900.085 422.978 894.264 428.798 894.264 435.952C894.264 443.106 900.085 448.926 907.241 448.926C914.396 448.926 920.218 443.106 920.218 435.952C920.218 428.798 914.396 422.978 907.241 422.978C914.396 422.978 900.085 422.978 907.241 422.978ZM907.241 445.885C901.756 445.885 897.305 441.436 897.305 435.952C897.305 430.468 901.756 426.019 907.241 426.019C912.726 426.019 917.176 430.468 917.176 435.952C917.176 441.436 912.726 445.885 907.241 445.885C912.726 445.885 901.756 445.885 907.241 445.885Z" fill="white"></path> <path d="M750.705 533.375C745.37 528.614 744.896 520.388 749.658 515.054C754.42 509.72 762.648 509.246 767.983 514.007C773.318 518.768 773.792 526.994 769.03 532.328C764.268 537.662 756.041 538.135 750.705 533.375C756.041 538.135 745.37 528.614 750.705 533.375ZM765.964 516.276C761.875 512.624 755.579 512.985 751.939 517.073C748.287 521.161 748.648 527.455 752.737 531.094C756.826 534.746 763.121 534.384 766.761 530.296C770.414 526.208 770.052 519.915 765.964 516.276C770.052 519.927 761.875 512.624 765.964 516.276Z" fill="white"></path> <path fill-rule="evenodd" clip-rule="evenodd" d="M235.849 47.8398H316.45V51.1898H237.237L164.102 124.306L184.008 198.248L180.773 199.119L160.364 123.306L235.849 47.8398Z" fill="white"></path> <path d="M326.386 36.541C319.23 36.541 313.409 42.3612 313.409 49.5149C313.409 56.6686 319.23 62.4888 326.386 62.4888C333.541 62.4888 339.363 56.6686 339.363 49.5149C339.363 42.3612 333.541 36.541 326.386 36.541C333.541 36.541 319.23 36.541 326.386 36.541ZM326.386 59.4478C320.901 59.4478 316.45 54.9986 316.45 49.5149C316.45 44.0312 320.901 39.582 326.386 39.582C331.871 39.582 336.321 44.0312 336.321 49.5149C336.321 54.9986 331.871 59.4478 326.386 59.4478C331.871 59.4478 320.901 59.4478 326.386 59.4478Z" fill="white"></path> <path d="M172.443 211.645C170.586 204.74 174.7 197.599 181.606 195.742C188.512 193.885 195.655 197.998 197.513 204.902C199.37 211.807 195.256 218.948 188.35 220.805C181.444 222.662 174.301 218.561 172.443 211.645C174.301 218.549 170.586 204.74 172.443 211.645ZM194.571 205.687C193.149 200.403 187.689 197.25 182.391 198.683C177.106 200.104 173.952 205.563 175.385 210.859C176.807 216.144 182.267 219.297 187.565 217.864C192.85 216.443 196.004 210.984 194.571 205.687C195.992 210.972 193.149 200.403 194.571 205.687Z" fill="white"></path> <path fill-rule="evenodd" clip-rule="evenodd" d="M525.23 95.3803L462.746 157.723H349.923L257.556 225.706L255.57 223.008L348.823 154.373H461.36L522.864 93.0088L525.23 95.3803Z" fill="white"></path> <path d="M256.265 240.696C262.024 236.459 263.271 228.308 259.02 222.55C254.781 216.792 246.629 215.546 240.869 219.796C235.11 224.033 233.863 232.184 238.114 237.942C242.365 243.7 250.505 244.946 256.265 240.696C262.024 236.459 250.505 244.933 256.265 240.696ZM242.677 222.251C247.09 218.998 253.323 219.945 256.564 224.357C259.818 228.769 258.87 235 254.457 238.241C250.044 241.494 243.811 240.546 240.57 236.135C237.329 231.723 238.264 225.491 242.677 222.251C247.09 218.998 238.264 225.504 242.677 222.251Z" fill="white"></path> <path d="M542.409 94.2193C537.348 99.2792 529.108 99.2667 524.047 94.1943C518.986 89.1344 518.998 80.8964 524.072 75.8365C529.133 70.7766 537.373 70.789 542.434 75.8614C547.496 80.9214 547.483 89.1593 542.409 94.2193C547.471 89.1593 537.348 99.2792 542.409 94.2193ZM526.216 78.005C522.339 81.8685 522.327 88.1748 526.204 92.0507C530.068 95.9267 536.376 95.9391 540.253 92.0632C544.13 88.1997 544.142 81.8935 540.265 78.0175C536.401 74.1415 530.093 74.1291 526.216 78.005C530.093 74.1291 522.339 81.8685 526.216 78.005Z" fill="white"></path> <path fill-rule="evenodd" clip-rule="evenodd" d="M442.679 100.583L472.889 69.2036L475.302 71.527L444.104 103.933H326.989L268.253 152.589L266.116 150.009L325.782 100.583H442.679Z" fill="white"></path> <path d="M473.735 52.0077C468.773 57.1674 468.935 65.3929 474.096 70.3531C479.257 75.3133 487.485 75.1513 492.446 70.0041C497.408 64.8445 497.246 56.619 492.097 51.6587C486.936 46.6985 478.709 46.8605 473.747 52.0077C468.786 57.1674 478.709 46.8481 473.747 52.0077H473.735ZM490.252 67.8854C486.45 71.8362 480.155 71.9608 476.203 68.1596C472.251 64.3584 472.127 58.0647 475.929 54.1139C479.731 50.1632 486.026 50.0386 489.978 53.8398C493.93 57.6409 494.054 63.9347 490.252 67.8854C494.054 63.9347 486.45 71.8362 490.252 67.8854Z" fill="white"></path> <path d="M251.241 147.648C256.751 143.087 264.954 143.847 269.516 149.368C274.079 154.889 273.318 163.077 267.796 167.638C262.286 172.2 254.083 171.44 249.521 165.919C244.958 160.41 245.719 152.209 251.241 147.648C256.751 143.087 245.731 152.209 251.241 147.648ZM265.864 165.295C270.077 161.806 270.676 155.525 267.173 151.312C263.682 147.1 257.399 146.501 253.186 150.003C248.972 153.493 248.374 159.774 251.877 163.987C255.367 168.199 261.65 168.798 265.864 165.295C270.077 161.806 261.65 168.785 265.864 165.295Z" fill="white"></path> <path fill-rule="evenodd" clip-rule="evenodd" d="M253.581 93.1643L214.15 131.525L211.814 129.124L251.244 90.7632L253.581 93.1643Z" fill="white"></path> <path d="M214.914 146.551C220.037 141.566 220.149 133.328 215.163 128.193C210.176 123.071 201.936 122.959 196.8 127.944C191.677 132.929 191.565 141.167 196.551 146.302C201.537 151.424 209.778 151.536 214.914 146.551C220.037 141.566 209.79 151.536 214.914 146.551ZM198.932 130.137C202.859 126.311 209.154 126.398 212.981 130.324C216.808 134.25 216.721 140.544 212.794 144.37C208.868 148.196 202.572 148.109 198.745 144.183C194.918 140.257 195.005 133.963 198.932 130.137C202.859 126.311 195.005 133.963 198.932 130.137Z" fill="white"></path> <path d="M268.581 94.3313C263.457 99.3165 255.217 99.2168 250.218 94.082C245.232 88.9598 245.332 80.7218 250.468 75.7242C255.591 70.739 263.831 70.8387 268.83 75.9734C273.816 81.0957 273.717 89.3337 268.581 94.3313C273.704 89.3461 263.457 99.3165 268.581 94.3313ZM252.599 77.9177C248.672 81.7438 248.585 88.0375 252.412 91.9633C256.239 95.8892 262.535 95.9764 266.462 92.1503C270.388 88.3242 270.476 82.0304 266.648 78.1046C262.821 74.1788 256.526 74.0915 252.599 77.9177C256.526 74.0915 248.672 81.7438 252.599 77.9177Z" fill="white"></path> <path fill-rule="evenodd" clip-rule="evenodd" d="M347.744 273.895L424.123 213.15L426.209 215.772L349.829 276.516L347.744 273.895Z" fill="white"></path> <path d="M424.867 198.122C419.269 202.572 418.334 210.76 422.785 216.356C427.235 221.951 435.425 222.886 441.022 218.437C446.62 213.988 447.555 205.8 443.104 200.204C438.654 194.608 430.464 193.673 424.867 198.122C430.464 193.673 419.269 202.572 424.867 198.122ZM439.128 216.056C434.839 219.471 428.581 218.748 425.166 214.461C421.75 210.174 422.473 203.918 426.761 200.503C431.05 197.088 437.308 197.811 440.723 202.098C444.139 206.385 443.416 212.642 439.128 216.056C443.416 212.642 434.839 219.471 439.128 216.056Z" fill="white"></path> <path d="M332.93 271.23C338.527 266.781 346.717 267.703 351.167 273.311C355.618 278.907 354.695 287.095 349.085 291.544C343.488 295.994 335.298 295.071 330.848 289.463C326.397 283.867 327.32 275.679 332.93 271.23C338.527 266.781 327.332 275.679 332.93 271.23ZM347.191 289.164C351.479 285.749 352.19 279.493 348.786 275.205C345.371 270.918 339.113 270.208 334.824 273.61C330.536 277.025 329.825 283.281 333.229 287.569C336.644 291.856 342.902 292.566 347.191 289.164C351.479 285.749 342.902 292.579 347.191 289.164Z" fill="white"></path> <path fill-rule="evenodd" clip-rule="evenodd" d="M832.428 627.407V531.144H835.778V627.407H832.428Z" fill="white"></path> <path d="M821.124 521.585C821.124 528.738 826.946 534.559 834.101 534.559C841.257 534.559 847.078 528.738 847.078 521.585C847.078 514.431 841.257 508.611 834.101 508.611C826.946 508.611 821.124 514.431 821.124 521.585C821.124 528.738 821.124 514.431 821.124 521.585ZM844.037 521.585C844.037 527.068 839.586 531.518 834.101 531.518C828.616 531.518 824.166 527.068 824.166 521.585C824.166 516.101 828.616 511.652 834.101 511.652C839.586 511.652 844.037 516.101 844.037 521.585C844.037 527.068 844.037 516.101 844.037 521.585Z" fill="white"></path> <path d="M821.124 638.561C821.124 631.408 826.946 625.587 834.101 625.587C841.257 625.587 847.078 631.408 847.078 638.561C847.078 645.715 841.257 651.535 834.101 651.535C826.946 651.535 821.124 645.715 821.124 638.561C821.124 645.715 821.124 631.408 821.124 638.561ZM844.037 638.561C844.037 633.09 839.586 628.628 834.101 628.628C828.616 628.628 824.166 633.078 824.166 638.561C824.166 644.045 828.616 648.494 834.101 648.494C839.586 648.494 844.037 644.045 844.037 638.561C844.037 644.045 844.037 633.078 844.037 638.561Z" fill="white"></path> <path fill-rule="evenodd" clip-rule="evenodd" d="M868.99 627.407V531.144H872.34V627.407H868.99Z" fill="white"></path> <path d="M857.688 521.585C857.688 528.738 863.51 534.559 870.666 534.559C877.821 534.559 883.643 528.738 883.643 521.585C883.643 514.431 877.821 508.611 870.666 508.611C863.51 508.611 857.688 514.431 857.688 521.585C857.688 528.738 857.688 514.431 857.688 521.585ZM880.601 521.585C880.601 527.068 876.151 531.518 870.666 531.518C865.181 531.518 860.73 527.068 860.73 521.585C860.73 516.101 865.181 511.652 870.666 511.652C876.151 511.652 880.601 516.101 880.601 521.585C880.601 527.068 880.601 516.101 880.601 521.585Z" fill="white"></path> <path d="M857.688 638.561C857.688 631.408 863.51 625.587 870.666 625.587C877.821 625.587 883.643 631.408 883.643 638.561C883.643 645.715 877.821 651.535 870.666 651.535C863.51 651.535 857.688 645.715 857.688 638.561C857.688 645.715 857.688 631.408 857.688 638.561ZM880.601 638.561C880.601 633.09 876.151 628.628 870.666 628.628C865.181 628.628 860.73 633.078 860.73 638.561C860.73 644.045 865.181 648.494 870.666 648.494C876.151 648.494 880.601 644.045 880.601 638.561C880.601 644.045 880.601 633.078 880.601 638.561Z" fill="white"></path> <path fill-rule="evenodd" clip-rule="evenodd" d="M905.565 627.407V531.144H908.915V627.407H905.565Z" fill="white"></path> <path d="M894.25 521.585C894.25 528.738 900.072 534.559 907.228 534.559C914.383 534.559 920.205 528.738 920.205 521.585C920.205 514.431 914.383 508.611 907.228 508.611C900.072 508.611 894.25 514.431 894.25 521.585C894.25 528.738 894.25 514.431 894.25 521.585ZM917.163 521.585C917.163 527.068 912.713 531.518 907.228 531.518C901.743 531.518 897.292 527.068 897.292 521.585C897.292 516.101 901.743 511.652 907.228 511.652C912.713 511.652 917.163 516.101 917.163 521.585C917.163 527.068 917.163 516.101 917.163 521.585Z" fill="white"></path> <path d="M894.25 638.561C894.25 631.408 900.072 625.587 907.228 625.587C914.383 625.587 920.205 631.408 920.205 638.561C920.205 645.715 914.383 651.535 907.228 651.535C900.072 651.535 894.25 645.715 894.25 638.561C894.25 645.715 894.25 631.408 894.25 638.561ZM917.163 638.561C917.163 633.09 912.713 628.628 907.228 628.628C901.743 628.628 897.292 633.078 897.292 638.561C897.292 644.045 901.743 648.494 907.228 648.494C912.713 648.494 917.163 644.045 917.163 638.561C917.163 644.045 917.163 633.078 917.163 638.561Z" fill="white"></path> <path fill-rule="evenodd" clip-rule="evenodd" d="M283.282 442.64L240.39 391.973L237.833 394.137L281.729 445.99H358.324V442.64H283.282Z" fill="white"></path> <path d="M371.312 431.341C364.157 431.341 358.335 437.161 358.335 444.315C358.335 451.468 364.157 457.289 371.312 457.289C378.468 457.289 384.289 451.468 384.289 444.315C384.289 437.161 378.468 431.341 371.312 431.341C378.468 431.341 364.157 431.341 371.312 431.341ZM371.312 454.248C365.827 454.248 361.377 449.798 361.377 444.315C361.377 438.831 365.827 434.382 371.312 434.382C376.797 434.382 381.247 438.831 381.247 444.315C381.247 449.798 376.797 454.248 371.312 454.248C376.797 454.248 365.827 454.248 371.312 454.248Z" fill="white"></path> <path d="M242.602 377.09C247.227 382.549 246.541 390.762 241.081 395.385C235.621 400.009 227.406 399.324 222.781 393.865C218.156 388.406 218.842 380.193 224.302 375.569C229.762 370.946 237.977 371.631 242.602 377.09C247.227 382.549 237.977 371.631 242.602 377.09ZM225.112 391.896C228.652 396.071 234.935 396.594 239.111 393.055C243.288 389.515 243.811 383.234 240.271 379.059C236.73 374.884 230.448 374.36 226.271 377.9C222.095 381.439 221.572 387.721 225.112 391.896C228.652 396.071 221.572 387.708 225.112 391.896Z" fill="white"></path> <path fill-rule="evenodd" clip-rule="evenodd" d="M592.988 543.636C602.589 543.614 613.456 543.614 618.444 543.701L618.385 547.051C613.438 546.964 602.608 546.964 592.996 546.986C588.194 546.997 583.702 547.013 580.411 547.027C578.765 547.033 577.42 547.039 576.486 547.044L575.605 547.048L522.082 589.26V676.187H518.732V587.636L574.436 543.704L575.012 543.701L575.021 545.376C575.012 543.701 575.012 543.701 575.012 543.701L576.47 543.694C577.404 543.69 578.75 543.683 580.397 543.677C583.69 543.663 588.183 543.647 592.988 543.636Z" fill="white"></path> <path d="M633.884 533.025C627.078 530.82 619.735 534.558 617.529 541.363C615.322 548.168 619.062 555.509 625.869 557.714C632.675 559.92 640.018 556.182 642.224 549.377C644.431 542.572 640.691 535.231 633.884 533.025C640.691 535.231 627.078 530.82 633.884 533.025ZM626.804 554.811C621.593 553.116 618.738 547.507 620.421 542.298C622.116 537.088 627.726 534.234 632.937 535.917C638.148 537.612 641.015 543.22 639.319 548.43C637.624 553.639 632.014 556.493 626.804 554.811C632.014 556.506 621.593 553.116 626.804 554.811Z" fill="white"></path> <path d="M507.429 686.12C507.429 678.966 513.25 673.146 520.406 673.146C527.561 673.146 533.383 678.966 533.383 686.12C533.383 693.274 527.561 699.094 520.406 699.094C513.25 699.094 507.429 693.274 507.429 686.12C507.429 693.274 507.429 678.966 507.429 686.12ZM530.341 686.12C530.341 680.636 525.891 676.187 520.406 676.187C514.921 676.187 510.47 680.636 510.47 686.12C510.47 691.604 514.921 696.053 520.406 696.053C525.891 696.053 530.341 691.604 530.341 686.12C530.341 691.604 530.341 680.636 530.341 686.12Z" fill="white"></path> <path fill-rule="evenodd" clip-rule="evenodd" d="M610.123 586.773H677.957L762.177 649.019L672.004 715.497L670.016 712.801L756.536 649.016L676.853 590.123H611.275L577.933 616.103L575.874 613.461L610.123 586.773Z" fill="white"></path> <path d="M574.646 633.003C580.293 628.603 581.303 620.428 576.902 614.782C572.502 609.136 564.324 608.127 558.677 612.526C553.03 616.926 552.02 625.101 556.42 630.747C560.821 636.393 568.999 637.402 574.646 633.003C580.293 628.603 568.999 637.402 574.646 633.003ZM560.559 614.932C564.885 611.567 571.13 612.339 574.496 616.664C577.862 620.989 577.089 627.232 572.763 630.597C568.438 633.962 562.192 633.19 558.826 628.865C555.461 624.54 556.233 618.297 560.559 614.932C564.885 611.567 556.233 618.297 560.559 614.932Z" fill="white"></path> <path d="M655.302 709.6C661.061 705.35 669.201 706.584 673.452 712.342C677.703 718.1 676.469 726.238 670.71 730.488C664.95 734.738 656.81 733.504 652.559 727.746C648.308 721.988 649.542 713.85 655.302 709.6C661.061 705.35 649.542 713.85 655.302 709.6ZM668.902 728.045C673.315 724.792 674.25 718.561 670.996 714.161C667.743 709.749 661.51 708.815 657.109 712.068C652.696 715.32 651.761 721.552 655.015 725.951C658.269 730.363 664.502 731.298 668.902 728.045C673.315 724.792 664.489 731.298 668.902 728.045Z" fill="white"></path> <path fill-rule="evenodd" clip-rule="evenodd" d="M636.744 678.745L680.699 645.12L682.734 647.781L638.779 681.406L636.744 678.745Z" fill="white"></path> <path d="M684.135 628.255C678.451 632.604 677.366 640.768 681.717 646.451C686.068 652.134 694.233 653.218 699.917 648.868C705.602 644.519 706.686 636.356 702.336 630.673C697.985 624.99 689.82 623.905 684.135 628.255C689.82 623.905 678.451 632.604 684.135 628.255ZM698.06 646.451C693.709 649.778 687.464 648.956 684.135 644.606C680.807 640.257 681.63 634.013 685.98 630.685C690.331 627.357 696.576 628.18 699.905 632.53C703.233 636.879 702.41 643.123 698.06 646.451C702.41 643.123 693.709 649.778 698.06 646.451Z" fill="white"></path> <path d="M621.98 675.813C627.665 671.463 635.83 672.548 640.18 678.231C644.531 683.914 643.447 692.077 637.762 696.427C632.078 700.776 623.912 699.692 619.562 694.009C615.211 688.326 616.296 680.162 621.98 675.813C627.665 671.463 616.296 680.162 621.98 675.813ZM635.905 694.009C640.255 690.681 641.09 684.437 637.75 680.088C634.421 675.738 628.176 674.903 623.825 678.243C619.474 681.571 618.639 687.815 621.98 692.164C625.308 696.514 631.554 697.349 635.905 694.009C640.255 690.681 631.554 697.336 635.905 694.009Z" fill="white"></path> <path fill-rule="evenodd" clip-rule="evenodd" d="M586.493 678.745L632.867 643.263L634.902 645.924L588.529 681.406L586.493 678.745Z" fill="white"></path> <path d="M633.885 628.255C628.201 632.604 627.116 640.768 631.467 646.451C635.818 652.134 643.983 653.218 649.667 648.868C655.352 644.519 656.436 636.356 652.086 630.673C647.735 624.99 639.57 623.905 633.885 628.255C639.57 623.905 628.201 632.604 633.885 628.255ZM647.81 646.451C643.459 649.778 637.214 648.956 633.885 644.606C630.557 640.257 631.38 634.013 635.73 630.685C640.081 627.357 646.326 628.18 649.655 632.53C652.983 636.879 652.16 643.123 647.81 646.451C652.16 643.123 643.459 649.778 647.81 646.451Z" fill="white"></path> <path d="M571.73 675.813C577.414 671.463 585.579 672.548 589.93 678.231C594.281 683.914 593.196 692.077 587.512 696.427C581.827 700.776 573.662 699.692 569.311 694.009C564.96 688.326 566.045 680.162 571.73 675.813C577.414 671.463 566.045 680.162 571.73 675.813ZM585.654 694.009C590.005 690.681 590.84 684.437 587.499 680.088C584.171 675.738 577.925 674.903 573.574 678.243C569.224 681.571 568.389 687.815 571.73 692.164C575.058 696.514 581.303 697.349 585.654 694.009C590.005 690.681 581.303 697.336 585.654 694.009Z" fill="white"></path> </svg> 