<?xml version="1.0" encoding="UTF-8"?> <svg xmlns="http://www.w3.org/2000/svg" width="76" height="60" viewBox="0 0 76 60" fill="none"> <g filter="url(#filter0_b_2170_2206)"> <rect x="16" width="60" height="60" rx="20" fill="white"></rect> </g> <path d="M46 32.5V42.5H36C36 36.9771 40.4771 32.5 46 32.5ZM53.5 41.875L49.8264 43.8064L50.528 39.7156L47.5559 36.8186L51.6631 36.2219L53.5 32.5L55.3369 36.2219L59.4441 36.8186L56.472 39.7156L57.1736 43.8064L53.5 41.875ZM46 31.25C41.8562 31.25 38.5 27.8938 38.5 23.75C38.5 19.6063 41.8562 16.25 46 16.25C50.1438 16.25 53.5 19.6063 53.5 23.75C53.5 27.8938 50.1438 31.25 46 31.25Z" fill="#3A6DE8"></path> <path d="M0 30H24" stroke="#3A6DE8" stroke-width="3" stroke-linejoin="round"></path> <path d="M12 18L24 30L12 42" stroke="#3A6DE8" stroke-width="3" stroke-linejoin="round"></path> <defs> <filter id="filter0_b_2170_2206" x="-84" y="-100" width="260" height="260" filterUnits="userSpaceOnUse" color-interpolation-filters="sRGB"> <feFlood flood-opacity="0" result="BackgroundImageFix"></feFlood> <feGaussianBlur in="BackgroundImageFix" stdDeviation="50"></feGaussianBlur> <feComposite in2="SourceAlpha" operator="in" result="effect1_backgroundBlur_2170_2206"></feComposite> <feBlend mode="normal" in="SourceGraphic" in2="effect1_backgroundBlur_2170_2206" result="shape"></feBlend> </filter> </defs> </svg> 