<?xml version="1.0" encoding="UTF-8"?> <svg xmlns="http://www.w3.org/2000/svg" width="76" height="60" viewBox="0 0 76 60" fill="none"> <g filter="url(#filter0_b_2170_2207)"> <rect x="16" width="60" height="60" rx="20" fill="white"></rect> </g> <path d="M0 30H24" stroke="#3A6DE8" stroke-width="3" stroke-linejoin="round"></path> <path d="M12 18L24 30L12 42" stroke="#3A6DE8" stroke-width="3" stroke-linejoin="round"></path> <path d="M35.999 42.5C35.999 36.9771 40.4762 32.5 45.999 32.5C51.5219 32.5 55.999 36.9771 55.999 42.5H35.999ZM45.999 31.25C41.8553 31.25 38.499 27.8938 38.499 23.75C38.499 19.6062 41.8553 16.25 45.999 16.25C50.1428 16.25 53.499 19.6062 53.499 23.75C53.499 27.8938 50.1428 31.25 45.999 31.25Z" fill="#3A6DE8"></path> <defs> <filter id="filter0_b_2170_2207" x="-84" y="-100" width="260" height="260" filterUnits="userSpaceOnUse" color-interpolation-filters="sRGB"> <feFlood flood-opacity="0" result="BackgroundImageFix"></feFlood> <feGaussianBlur in="BackgroundImageFix" stdDeviation="50"></feGaussianBlur> <feComposite in2="SourceAlpha" operator="in" result="effect1_backgroundBlur_2170_2207"></feComposite> <feBlend mode="normal" in="SourceGraphic" in2="effect1_backgroundBlur_2170_2207" result="shape"></feBlend> </filter> </defs> </svg> 