<?xml version="1.0" encoding="UTF-8"?> <svg xmlns="http://www.w3.org/2000/svg" width="181" height="45" viewBox="0 0 181 45" fill="none"><path fill-rule="evenodd" clip-rule="evenodd" d="M32.975 22.1872C32.975 28.2582 29.696 33.5633 24.8127 36.4277C21.5844 32.5729 19.6398 27.6082 19.6398 22.1872C19.6398 16.7662 21.5826 11.8033 24.8109 7.94849C29.696 10.8111 32.975 16.1162 32.975 22.1872Z" fill="url(#paint0_linear_2230_156)"></path><path fill-rule="evenodd" clip-rule="evenodd" d="M31.2659 29.5059C30.978 30.0871 30.6557 30.6466 30.3044 31.1861H62.1116C62.3561 30.6375 62.5769 30.0762 62.7761 29.5059H31.2641H31.2659Z" fill="url(#paint1_linear_2230_156)"></path><path fill-rule="evenodd" clip-rule="evenodd" d="M32.4716 26.2432C32.3268 26.8153 32.153 27.3766 31.9484 27.9234H63.263C63.4097 27.3712 63.5364 26.8117 63.6415 26.2432H32.4698H32.4716Z" fill="url(#paint2_linear_2230_156)"></path><path fill-rule="evenodd" clip-rule="evenodd" d="M32.955 22.9785C32.9279 23.5471 32.8718 24.1065 32.7903 24.6588H63.8768C63.9384 24.1047 63.98 23.5434 63.9999 22.9785H32.955Z" fill="url(#paint3_linear_2230_156)"></path><path fill-rule="evenodd" clip-rule="evenodd" d="M29.1329 32.7686C28.6332 33.3661 28.09 33.9274 27.5106 34.4488H60.3191C60.6812 33.9056 61.0198 33.3443 61.333 32.7686H29.1329Z" fill="url(#paint4_linear_2230_156)"></path><path fill-rule="evenodd" clip-rule="evenodd" d="M53.6306 40.9762C54.4417 40.4656 55.2185 39.9043 55.9554 39.2959H27.7007C28.4376 39.9043 29.2126 40.4656 30.0237 40.9762H53.6288H53.6306Z" fill="url(#paint5_linear_2230_156)"></path><path fill-rule="evenodd" clip-rule="evenodd" d="M25.4483 36.0332C25.2401 36.169 25.0282 36.3012 24.8127 36.4279C25.1839 36.8715 25.5732 37.3006 25.9788 37.7135H57.6755C58.1988 37.1793 58.6967 36.618 59.1638 36.0332H25.4465H25.4483Z" fill="url(#paint6_linear_2230_156)"></path><path fill-rule="evenodd" clip-rule="evenodd" d="M50.6286 1.81605C47.9308 0.648202 44.9541 0 41.8272 0C38.7003 0 35.7254 0.648202 33.0276 1.81605H50.6286Z" fill="url(#paint7_linear_2230_156)"></path><path fill-rule="evenodd" clip-rule="evenodd" d="M30.0255 3.39844C29.2144 3.90903 28.4376 4.47032 27.7025 5.07869H55.9554C55.2185 4.47032 54.4418 3.90903 53.6306 3.39844H30.0255Z" fill="url(#paint8_linear_2230_156)"></path><path fill-rule="evenodd" clip-rule="evenodd" d="M25.9788 6.66138C25.5732 7.0742 25.1839 7.50332 24.8127 7.94692C25.0282 8.07366 25.2382 8.20584 25.4483 8.34163H59.1656C58.6985 7.7568 58.2006 7.19551 57.6773 6.66138H25.9806H25.9788Z" fill="url(#paint9_linear_2230_156)"></path><path fill-rule="evenodd" clip-rule="evenodd" d="M33.0276 42.5586C35.7254 43.7264 38.7003 44.3746 41.8272 44.3746C44.9541 44.3746 47.9308 43.7264 50.6286 42.5586H33.0276Z" fill="url(#paint10_linear_2230_156)"></path><path fill-rule="evenodd" clip-rule="evenodd" d="M31.9484 16.4512C32.1512 16.998 32.3268 17.5593 32.4716 18.1314H63.6433C63.5383 17.5629 63.4115 17.0034 63.2649 16.4512H31.9502H31.9484Z" fill="url(#paint11_linear_2230_156)"></path><path fill-rule="evenodd" clip-rule="evenodd" d="M32.7903 19.7158C32.8736 20.2681 32.9297 20.8275 32.955 21.3961H63.9999C63.98 20.8294 63.9384 20.2699 63.8768 19.7158H32.7903Z" fill="url(#paint12_linear_2230_156)"></path><path fill-rule="evenodd" clip-rule="evenodd" d="M30.3044 13.1887C30.6557 13.7283 30.978 14.2896 31.2659 14.869H62.7779C62.5788 14.2986 62.356 13.7373 62.1134 13.1887H30.3063H30.3044Z" fill="url(#paint13_linear_2230_156)"></path><path fill-rule="evenodd" clip-rule="evenodd" d="M27.5106 9.92578C28.09 10.4472 28.6314 11.0085 29.1329 11.606H61.333C61.0198 11.0303 60.6812 10.469 60.3191 9.92578H27.5106Z" fill="url(#paint14_linear_2230_156)"></path><path fill-rule="evenodd" clip-rule="evenodd" d="M3.82227 32.7686C4.322 33.3661 4.86337 33.9274 5.44277 34.4488H23.3353C22.9732 33.9056 22.6364 33.3443 22.3232 32.7686H3.82227Z" fill="url(#paint15_linear_2230_156)"></path><path fill-rule="evenodd" clip-rule="evenodd" d="M0.483398 26.2432C0.628248 26.8153 0.802068 27.3766 1.00486 27.9234H20.3894C20.2427 27.3712 20.116 26.8117 20.0109 26.2432H0.483398Z" fill="url(#paint16_linear_2230_156)"></path><path fill-rule="evenodd" clip-rule="evenodd" d="M16.4784 38.6858C19.5185 38.6858 22.3666 37.8619 24.8127 36.4279C24.7041 36.2976 24.5973 36.1654 24.4904 36.0332H7.505C10.0888 37.7116 13.1686 38.6858 16.4784 38.6858Z" fill="url(#paint17_linear_2230_156)"></path><path fill-rule="evenodd" clip-rule="evenodd" d="M24.4904 8.34323C24.5973 8.21106 24.7041 8.07888 24.8127 7.94852C22.3666 6.51451 19.5185 5.69067 16.4784 5.69067C13.1686 5.69067 10.0869 6.6666 7.505 8.34323H24.4904Z" fill="url(#paint18_linear_2230_156)"></path><path fill-rule="evenodd" clip-rule="evenodd" d="M1.68933 29.5059C1.97722 30.0871 2.2977 30.6466 2.64896 31.1861H21.541C21.2965 30.6375 21.0756 30.0762 20.8747 29.5059H1.68933Z" fill="url(#paint19_linear_2230_156)"></path><path fill-rule="evenodd" clip-rule="evenodd" d="M2.65079 13.1887C2.29953 13.7283 1.97905 14.2896 1.69116 14.869H20.8783C21.0775 14.2986 21.3002 13.7373 21.5446 13.1887H2.65079Z" fill="url(#paint20_linear_2230_156)"></path><path fill-rule="evenodd" clip-rule="evenodd" d="M5.44277 9.92578C4.86337 10.4472 4.322 11.0085 3.82227 11.606H22.3232C22.6364 11.0303 22.975 10.469 23.3353 9.92578H5.44277Z" fill="url(#paint21_linear_2230_156)"></path><path fill-rule="evenodd" clip-rule="evenodd" d="M1.00486 16.4512C0.802068 16.998 0.626437 17.5593 0.483398 18.1314H20.0109C20.116 17.5629 20.2427 17.0034 20.3894 16.4512H1.00486Z" fill="url(#paint22_linear_2230_156)"></path><path fill-rule="evenodd" clip-rule="evenodd" d="M0 22.9785C0.0271593 23.5471 0.0814779 24.1065 0.164766 24.6588H19.7756C19.714 24.1047 19.6742 23.5434 19.6543 22.9785H0Z" fill="url(#paint23_linear_2230_156)"></path><path fill-rule="evenodd" clip-rule="evenodd" d="M0.164766 19.7158C0.0814779 20.2681 0.0271593 20.8275 0 21.3961H19.6543C19.6742 20.8312 19.714 20.2699 19.7756 19.7158H0.164766Z" fill="url(#paint24_linear_2230_156)"></path><path d="M172.866 27.416C171.48 27.416 170.285 27.2774 169.282 27C168.301 26.7014 167.49 26.3067 166.85 25.816C166.21 25.304 165.73 24.7174 165.41 24.056C165.09 23.3734 164.909 22.648 164.866 21.88H169.794C169.922 22.3494 170.2 22.7654 170.626 23.128C171.053 23.4694 171.8 23.64 172.866 23.64C173.954 23.64 174.733 23.4907 175.202 23.192C175.672 22.8934 175.906 22.4987 175.906 22.008C175.906 21.752 175.8 21.528 175.586 21.336C175.394 21.1227 175.021 20.9307 174.466 20.76C173.933 20.5894 173.154 20.4187 172.13 20.248C171.192 20.0987 170.306 19.9067 169.474 19.672C168.664 19.4374 167.949 19.128 167.33 18.744C166.712 18.3387 166.221 17.8267 165.858 17.208C165.517 16.5894 165.346 15.8107 165.346 14.872C165.346 13.8694 165.645 12.9734 166.242 12.184C166.84 11.3947 167.704 10.776 168.834 10.328C169.965 9.85869 171.309 9.62402 172.866 9.62402C174.637 9.62402 176.034 9.90136 177.058 10.456C178.104 10.9894 178.872 11.6827 179.362 12.536C179.853 13.368 180.141 14.2427 180.226 15.16H175.266C175.138 14.6267 174.861 14.2 174.434 13.88C174.029 13.56 173.506 13.4 172.866 13.4C171.885 13.4 171.202 13.5494 170.818 13.848C170.456 14.1467 170.274 14.5094 170.274 14.936C170.274 15.3627 170.573 15.704 171.17 15.96C171.768 16.1947 172.717 16.3974 174.018 16.568C174.957 16.696 175.832 16.8774 176.642 17.112C177.474 17.3467 178.2 17.6774 178.818 18.104C179.458 18.5094 179.96 19.032 180.322 19.672C180.685 20.2907 180.866 21.048 180.866 21.944C180.866 23.0107 180.557 23.96 179.938 24.792C179.341 25.624 178.445 26.2747 177.25 26.744C176.077 27.192 174.616 27.416 172.866 27.416Z" fill="#3A6DE8"></path><path d="M147.1 27.0001V4.6001H152.028V16.5681L157.5 10.0401H163.068L157.116 17.1761L163.74 27.0001H158.044L153.788 20.6001L152.028 22.6481V27.0001H147.1Z" fill="#3A6DE8"></path><path d="M136.694 27.416C135.03 27.416 133.547 27.096 132.246 26.456C130.945 25.816 129.921 24.8454 129.174 23.544C128.427 22.2427 128.054 20.6214 128.054 18.68V18.04C128.054 16.248 128.438 14.7227 129.206 13.464C129.995 12.2054 131.041 11.256 132.342 10.616C133.665 9.95469 135.115 9.62402 136.694 9.62402C138.4 9.62402 139.83 9.92269 140.982 10.52C142.134 11.096 143.019 11.8747 143.638 12.856C144.256 13.8374 144.608 14.9254 144.694 16.12H139.606C139.457 15.352 139.147 14.7654 138.678 14.36C138.23 13.9334 137.568 13.72 136.694 13.72C136.011 13.72 135.392 13.88 134.838 14.2C134.304 14.52 133.878 15 133.558 15.64C133.259 16.2587 133.11 17.0587 133.11 18.04V18.68C133.11 19.7254 133.259 20.5894 133.558 21.272C133.857 21.9547 134.273 22.4667 134.806 22.808C135.339 23.128 135.968 23.288 136.694 23.288C137.44 23.288 138.07 23.096 138.582 22.712C139.115 22.3067 139.457 21.7094 139.606 20.92H144.694C144.608 22.2427 144.224 23.3947 143.542 24.376C142.859 25.3574 141.931 26.1147 140.758 26.648C139.606 27.16 138.251 27.416 136.694 27.416Z" fill="#3A6DE8"></path><path d="M120.233 27.0001V10.0401H125.161V27.0001H120.233ZM122.697 8.44007C121.779 8.44007 121.065 8.2054 120.553 7.73607C120.062 7.2454 119.817 6.62674 119.817 5.88007C119.817 5.1334 120.062 4.5254 120.553 4.05607C121.065 3.5654 121.779 3.32007 122.697 3.32007C123.614 3.32007 124.318 3.5654 124.809 4.05607C125.321 4.5254 125.577 5.1334 125.577 5.88007C125.577 6.62674 125.321 7.2454 124.809 7.73607C124.318 8.2054 123.614 8.44007 122.697 8.44007Z" fill="#3A6DE8"></path><path d="M115.274 27.1921C113.908 27.1921 112.788 27.0321 111.914 26.7121C111.039 26.3708 110.388 25.7628 109.962 24.8881C109.556 23.9921 109.354 22.7014 109.354 21.0161V4.6001H114.282V20.2801C114.282 21.3254 114.42 22.0614 114.698 22.4881C114.996 22.8934 115.604 23.0961 116.522 23.0961C116.778 23.0961 116.991 23.0961 117.162 23.0961C117.332 23.0748 117.503 23.0534 117.674 23.0321V27.0961C117.46 27.1174 117.226 27.1281 116.97 27.1281C116.735 27.1494 116.468 27.1601 116.17 27.1601C115.892 27.1814 115.594 27.1921 115.274 27.1921Z" fill="#3A6DE8"></path><path d="M96.7151 27.4161C94.6671 27.4161 92.8537 27.0428 91.2751 26.2961C89.7177 25.5281 88.5017 24.3014 87.6271 22.6161C86.7524 20.9307 86.3151 18.7014 86.3151 15.9281V15.3201C86.3151 13.3574 86.5817 11.6721 87.1151 10.2641C87.6484 8.85608 88.3844 7.70408 89.3231 6.80808C90.2831 5.91208 91.3924 5.25075 92.6511 4.82408C93.9097 4.39742 95.2644 4.18408 96.7151 4.18408C98.0164 4.18408 99.2431 4.33342 100.395 4.63208C101.547 4.93075 102.55 5.40008 103.403 6.04008C104.278 6.68008 104.982 7.51208 105.515 8.53608C106.048 9.56008 106.368 10.8081 106.475 12.2801H100.491C100.299 11.1067 99.8511 10.2641 99.1471 9.75208C98.4431 9.24008 97.6324 8.98408 96.7151 8.98408C95.8617 8.98408 95.0937 9.19742 94.4111 9.62408C93.7497 10.0294 93.2271 10.6907 92.8431 11.6081C92.4591 12.5254 92.2671 13.7628 92.2671 15.3201V15.9921C92.2671 17.2294 92.3844 18.2748 92.6191 19.1281C92.8537 19.9814 93.1737 20.6641 93.5791 21.1761C94.0057 21.6881 94.4857 22.0614 95.0191 22.2961C95.5524 22.5094 96.1177 22.6161 96.7151 22.6161C97.8031 22.6161 98.6671 22.3601 99.3071 21.8481C99.9684 21.3148 100.363 20.4721 100.491 19.3201H106.475C106.39 20.8134 106.08 22.0828 105.547 23.1281C105.035 24.1521 104.342 24.9841 103.467 25.6241C102.614 26.2428 101.611 26.7014 100.459 27.0001C99.3071 27.2774 98.0591 27.4161 96.7151 27.4161Z" fill="#3A6DE8"></path><path d="M76.5601 27.0001V4.6001H82.3201V27.0001H76.5601Z" fill="#3A6DE8"></path><path d="M177.176 41.1321C176.7 41.1321 176.3 41.0844 175.977 40.9891C175.655 40.8864 175.387 40.7508 175.174 40.5821C174.969 40.4061 174.815 40.2081 174.712 39.9881C174.617 39.7681 174.558 39.5371 174.536 39.2951H175.988C176.025 39.4858 176.139 39.6434 176.329 39.7681C176.52 39.8854 176.802 39.9441 177.176 39.9441C177.602 39.9441 177.906 39.8854 178.089 39.7681C178.273 39.6508 178.364 39.5004 178.364 39.3171C178.364 39.1851 178.324 39.0788 178.243 38.9981C178.163 38.9101 178.02 38.8368 177.814 38.7781C177.609 38.7121 177.319 38.6461 176.945 38.5801C176.623 38.5361 176.326 38.4774 176.054 38.4041C175.79 38.3234 175.556 38.2134 175.35 38.0741C175.145 37.9348 174.984 37.7624 174.866 37.5571C174.756 37.3444 174.701 37.0878 174.701 36.7871C174.701 36.4644 174.797 36.1711 174.987 35.9071C175.185 35.6431 175.468 35.4341 175.834 35.2801C176.208 35.1188 176.656 35.0381 177.176 35.0381C177.741 35.0381 178.192 35.1261 178.529 35.3021C178.867 35.4781 179.12 35.7054 179.288 35.9841C179.457 36.2628 179.56 36.5598 179.596 36.8751H178.144C178.086 36.6624 177.972 36.5011 177.803 36.3911C177.635 36.2811 177.426 36.2261 177.176 36.2261C176.81 36.2261 176.546 36.2848 176.384 36.4021C176.23 36.5121 176.153 36.6514 176.153 36.8201C176.153 36.9961 176.238 37.1318 176.406 37.2271C176.582 37.3224 176.938 37.4068 177.473 37.4801C177.803 37.5241 178.108 37.5901 178.386 37.6781C178.672 37.7588 178.922 37.8688 179.134 38.0081C179.347 38.1474 179.512 38.3234 179.629 38.5361C179.754 38.7414 179.816 38.9944 179.816 39.2951C179.816 39.6544 179.717 39.9734 179.519 40.2521C179.329 40.5234 179.035 40.7398 178.639 40.9011C178.251 41.0551 177.763 41.1321 177.176 41.1321Z" fill="#3A6DE8"></path><path d="M165.197 41.0001V35.1701H166.517V36.0391C166.649 35.7824 166.862 35.5514 167.155 35.3461C167.456 35.1408 167.801 35.0381 168.189 35.0381C168.659 35.0381 169.025 35.1334 169.289 35.3241C169.561 35.5148 169.751 35.7678 169.861 36.0831C170.023 35.7751 170.254 35.5258 170.554 35.3351C170.862 35.1371 171.225 35.0381 171.643 35.0381C172.259 35.0381 172.729 35.2178 173.051 35.5771C173.381 35.9364 173.546 36.4791 173.546 37.2051V41.0001H172.094V37.5351C172.094 37.0731 172.017 36.7468 171.863 36.5561C171.717 36.3654 171.478 36.2701 171.148 36.2701C170.958 36.2701 170.782 36.3214 170.62 36.4241C170.459 36.5194 170.327 36.6624 170.224 36.8531C170.129 37.0438 170.081 37.2711 170.081 37.5351V41.0001H168.64V37.5351C168.64 37.0731 168.563 36.7468 168.409 36.5561C168.263 36.3654 168.024 36.2701 167.694 36.2701C167.504 36.2701 167.324 36.3214 167.155 36.4241C166.994 36.5194 166.866 36.6624 166.77 36.8531C166.682 37.0438 166.638 37.2711 166.638 37.5351V41.0001H165.197Z" fill="#3A6DE8"></path><path d="M161.446 41.1321C160.918 41.1321 160.43 41.0258 159.983 40.8131C159.543 40.5931 159.191 40.2631 158.927 39.8231C158.663 39.3758 158.531 38.8148 158.531 38.1401V37.9201C158.531 37.2748 158.655 36.7394 158.905 36.3141C159.161 35.8888 159.502 35.5698 159.928 35.3571C160.353 35.1444 160.822 35.0381 161.336 35.0381C162.252 35.0381 162.949 35.2801 163.426 35.7641C163.902 36.2481 164.141 36.9484 164.141 37.8651V38.4811H160.016C160.03 38.8258 160.104 39.1081 160.236 39.3281C160.375 39.5408 160.551 39.6984 160.764 39.8011C160.976 39.8964 161.204 39.9441 161.446 39.9441C161.82 39.9441 162.102 39.8891 162.293 39.7791C162.483 39.6691 162.619 39.5078 162.7 39.2951H164.031C163.913 39.9038 163.624 40.3621 163.162 40.6701C162.7 40.9781 162.128 41.1321 161.446 41.1321ZM161.391 36.2261C161.163 36.2261 160.943 36.2628 160.731 36.3361C160.518 36.4094 160.349 36.5414 160.225 36.7321C160.1 36.9154 160.03 37.1611 160.016 37.4691H162.733C162.725 37.1391 162.659 36.8861 162.535 36.7101C162.417 36.5268 162.26 36.4021 162.062 36.3361C161.864 36.2628 161.64 36.2261 161.391 36.2261Z" fill="#3A6DE8"></path><path d="M156.82 41.0661C156.365 41.0661 155.991 41.0038 155.698 40.8791C155.404 40.7471 155.188 40.5381 155.049 40.2521C154.917 39.9661 154.851 39.5958 154.851 39.1411V36.3801H154.07V35.1701H154.851V33.8501H156.292V35.1701H157.7V36.3801H156.292V38.9101C156.292 39.2401 156.35 39.4784 156.468 39.6251C156.592 39.7644 156.82 39.8341 157.15 39.8341C157.37 39.8341 157.59 39.8231 157.81 39.8011V41.0111C157.67 41.0258 157.524 41.0368 157.37 41.0441C157.223 41.0588 157.04 41.0661 156.82 41.0661Z" fill="#3A6DE8"></path><path d="M150.783 41.1321C150.306 41.1321 149.906 41.0844 149.584 40.9891C149.261 40.8864 148.993 40.7508 148.781 40.5821C148.575 40.4061 148.421 40.2081 148.319 39.9881C148.223 39.7681 148.165 39.5371 148.143 39.2951H149.595C149.631 39.4858 149.745 39.6434 149.936 39.7681C150.126 39.8854 150.409 39.9441 150.783 39.9441C151.208 39.9441 151.512 39.8854 151.696 39.7681C151.879 39.6508 151.971 39.5004 151.971 39.3171C151.971 39.1851 151.93 39.0788 151.85 38.9981C151.769 38.9101 151.626 38.8368 151.421 38.7781C151.215 38.7121 150.926 38.6461 150.552 38.5801C150.229 38.5361 149.932 38.4774 149.661 38.4041C149.397 38.3234 149.162 38.2134 148.957 38.0741C148.751 37.9348 148.59 37.7624 148.473 37.5571C148.363 37.3444 148.308 37.0878 148.308 36.7871C148.308 36.4644 148.403 36.1711 148.594 35.9071C148.792 35.6431 149.074 35.4341 149.441 35.2801C149.815 35.1188 150.262 35.0381 150.783 35.0381C151.347 35.0381 151.798 35.1261 152.136 35.3021C152.473 35.4781 152.726 35.7054 152.895 35.9841C153.063 36.2628 153.166 36.5598 153.203 36.8751H151.751C151.692 36.6624 151.578 36.5011 151.41 36.3911C151.241 36.2811 151.032 36.2261 150.783 36.2261C150.416 36.2261 150.152 36.2848 149.991 36.4021C149.837 36.5121 149.76 36.6514 149.76 36.8201C149.76 36.9961 149.844 37.1318 150.013 37.2271C150.189 37.3224 150.544 37.4068 151.08 37.4801C151.41 37.5241 151.714 37.5901 151.993 37.6781C152.279 37.7588 152.528 37.8688 152.741 38.0081C152.953 38.1474 153.118 38.3234 153.236 38.5361C153.36 38.7414 153.423 38.9944 153.423 39.2951C153.423 39.6544 153.324 39.9734 153.126 40.2521C152.935 40.5234 152.642 40.7398 152.246 40.9011C151.857 41.0551 151.369 41.1321 150.783 41.1321Z" fill="#3A6DE8"></path><path d="M143.134 43.3322C143.024 43.3322 142.914 43.3212 142.804 43.2992V42.0672C142.914 42.0892 143.024 42.1002 143.134 42.1002C143.281 42.1002 143.402 42.0635 143.497 41.9902C143.6 41.9168 143.692 41.7995 143.772 41.6382C143.86 41.4768 143.956 41.2642 144.058 41.0002L141.594 35.1702H143.222L144.806 39.1962L146.247 35.1702H147.754L145.51 41.0002C145.298 41.5502 145.092 41.9938 144.894 42.3312C144.696 42.6758 144.462 42.9288 144.19 43.0902C143.926 43.2515 143.574 43.3322 143.134 43.3322Z" fill="#3A6DE8"></path><path d="M137.863 41.132C137.181 41.132 136.613 41.0366 136.158 40.846C135.704 40.6553 135.355 40.3913 135.113 40.054C134.879 39.7093 134.75 39.3096 134.728 38.855H136.378C136.437 39.141 136.569 39.361 136.774 39.515C136.987 39.669 137.35 39.746 137.863 39.746C138.391 39.746 138.769 39.6763 138.996 39.537C139.231 39.3903 139.348 39.185 139.348 38.921C139.348 38.701 139.279 38.5213 139.139 38.382C139.007 38.2426 138.802 38.1253 138.523 38.03C138.245 37.9273 137.882 37.832 137.434 37.744C136.914 37.6413 136.466 37.4983 136.092 37.315C135.718 37.1316 135.432 36.8823 135.234 36.567C135.044 36.2516 134.948 35.852 134.948 35.368C134.948 34.9206 135.066 34.5356 135.3 34.213C135.542 33.883 135.88 33.6263 136.312 33.443C136.752 33.2596 137.269 33.168 137.863 33.168C138.509 33.168 139.037 33.2596 139.447 33.443C139.865 33.619 140.181 33.8683 140.393 34.191C140.613 34.5136 140.742 34.895 140.778 35.335H139.139C139.081 35.071 138.96 34.8766 138.776 34.752C138.593 34.62 138.289 34.554 137.863 34.554C137.431 34.554 137.112 34.6236 136.906 34.763C136.701 34.9023 136.598 35.0893 136.598 35.324C136.598 35.61 136.738 35.8336 137.016 35.995C137.302 36.1563 137.75 36.2956 138.358 36.413C138.776 36.4936 139.147 36.5926 139.469 36.71C139.799 36.8273 140.078 36.9813 140.305 37.172C140.533 37.3553 140.705 37.579 140.822 37.843C140.94 38.107 140.998 38.426 140.998 38.8C140.998 39.2693 140.874 39.68 140.624 40.032C140.382 40.384 140.027 40.6553 139.557 40.846C139.095 41.0366 138.531 41.132 137.863 41.132Z" fill="#3A6DE8"></path><path d="M130.104 41.0661C129.649 41.0661 129.275 41.0038 128.982 40.8791C128.689 40.7471 128.472 40.5381 128.333 40.2521C128.201 39.9661 128.135 39.5958 128.135 39.1411V36.3801H127.354V35.1701H128.135V33.8501H129.576V35.1701H130.984V36.3801H129.576V38.9101C129.576 39.2401 129.635 39.4784 129.752 39.6251C129.877 39.7644 130.104 39.8341 130.434 39.8341C130.654 39.8341 130.874 39.8231 131.094 39.8011V41.0111C130.955 41.0258 130.808 41.0368 130.654 41.0441C130.507 41.0588 130.324 41.0661 130.104 41.0661Z" fill="#3A6DE8"></path><path d="M121.09 41.0001V35.1701H122.41V36.0281C122.557 35.7641 122.784 35.5331 123.092 35.3351C123.4 35.1371 123.822 35.0381 124.357 35.0381C125.068 35.0381 125.596 35.2288 125.941 35.6101C126.293 35.9914 126.469 36.5414 126.469 37.2601V41.0001H125.017V37.5901C125.017 37.1574 124.925 36.8311 124.742 36.6111C124.566 36.3838 124.262 36.2701 123.829 36.2701C123.521 36.2701 123.272 36.3324 123.081 36.4571C122.89 36.5818 122.751 36.7431 122.663 36.9411C122.575 37.1391 122.531 37.3554 122.531 37.5901V41.0001H121.09Z" fill="#3A6DE8"></path><path d="M117.338 41.1321C116.81 41.1321 116.322 41.0258 115.875 40.8131C115.435 40.5931 115.083 40.2631 114.819 39.8231C114.555 39.3758 114.423 38.8148 114.423 38.1401V37.9201C114.423 37.2748 114.548 36.7394 114.797 36.3141C115.054 35.8888 115.395 35.5698 115.82 35.3571C116.245 35.1444 116.715 35.0381 117.228 35.0381C118.145 35.0381 118.841 35.2801 119.318 35.7641C119.795 36.2481 120.033 36.9484 120.033 37.8651V38.4811H115.908C115.923 38.8258 115.996 39.1081 116.128 39.3281C116.267 39.5408 116.443 39.6984 116.656 39.8011C116.869 39.8964 117.096 39.9441 117.338 39.9441C117.712 39.9441 117.994 39.8891 118.185 39.7791C118.376 39.6691 118.511 39.5078 118.592 39.2951H119.923C119.806 39.9038 119.516 40.3621 119.054 40.6701C118.592 40.9781 118.02 41.1321 117.338 41.1321ZM117.283 36.2261C117.056 36.2261 116.836 36.2628 116.623 36.3361C116.41 36.4094 116.242 36.5414 116.117 36.7321C115.992 36.9154 115.923 37.1611 115.908 37.4691H118.625C118.618 37.1391 118.552 36.8861 118.427 36.7101C118.31 36.5268 118.152 36.4021 117.954 36.3361C117.756 36.2628 117.532 36.2261 117.283 36.2261Z" fill="#3A6DE8"></path><path d="M110.461 43.3321C109.845 43.3321 109.353 43.2551 108.987 43.1011C108.62 42.9544 108.349 42.7491 108.173 42.4851C108.004 42.2211 107.905 41.9094 107.876 41.5501H109.35C109.394 41.7041 109.493 41.8471 109.647 41.9791C109.801 42.1184 110.072 42.1881 110.461 42.1881C110.952 42.1881 111.319 42.0708 111.561 41.8361C111.803 41.6014 111.924 41.2494 111.924 40.7801V40.0761C111.74 40.3621 111.495 40.5931 111.187 40.7691C110.879 40.9378 110.527 41.0221 110.131 41.0221C109.625 41.0221 109.185 40.9121 108.811 40.6921C108.444 40.4721 108.158 40.1458 107.953 39.7131C107.755 39.2731 107.656 38.7304 107.656 38.0851V37.8651C107.656 37.2564 107.755 36.7431 107.953 36.3251C108.158 35.9071 108.448 35.5881 108.822 35.3681C109.196 35.1481 109.632 35.0381 110.131 35.0381C110.615 35.0381 111.014 35.1371 111.33 35.3351C111.645 35.5331 111.876 35.7641 112.023 36.0281V35.1701H113.365V40.6701C113.365 41.5354 113.126 42.1954 112.65 42.6501C112.173 43.1048 111.443 43.3321 110.461 43.3321ZM110.472 39.7901C110.765 39.7901 111.018 39.7388 111.231 39.6361C111.451 39.5261 111.619 39.3574 111.737 39.1301C111.861 38.9028 111.924 38.6278 111.924 38.3051V37.6451C111.924 37.3371 111.861 37.0841 111.737 36.8861C111.612 36.6881 111.44 36.5378 111.22 36.4351C111 36.3251 110.75 36.2701 110.472 36.2701C110.076 36.2701 109.753 36.4058 109.504 36.6771C109.254 36.9411 109.13 37.3371 109.13 37.8651V38.0851C109.13 38.6498 109.258 39.0751 109.515 39.3611C109.771 39.6471 110.09 39.7901 110.472 39.7901Z" fill="#3A6DE8"></path><path d="M105.065 41.0001V35.1701H106.506V41.0001H105.065ZM105.78 34.6091C105.523 34.6091 105.311 34.5284 105.142 34.3671C104.981 34.2058 104.9 33.9968 104.9 33.7401C104.9 33.4834 104.981 33.2744 105.142 33.1131C105.311 32.9518 105.52 32.8711 105.769 32.8711C106.033 32.8711 106.246 32.9518 106.407 33.1131C106.576 33.2744 106.66 33.4834 106.66 33.7401C106.66 33.9968 106.576 34.2058 106.407 34.3671C106.246 34.5284 106.037 34.6091 105.78 34.6091Z" fill="#3A6DE8"></path><path d="M103.293 41.066C102.846 41.066 102.479 41.0074 102.193 40.89C101.915 40.7654 101.709 40.56 101.577 40.274C101.445 39.9807 101.379 39.5737 101.379 39.0531V33.3H102.82V38.877C102.82 39.251 102.872 39.504 102.974 39.636C103.084 39.768 103.297 39.834 103.612 39.834C103.693 39.834 103.763 39.834 103.821 39.834C103.88 39.8267 103.939 39.8194 103.997 39.812V41.022C103.961 41.0367 103.898 41.0477 103.81 41.055C103.722 41.0624 103.631 41.066 103.535 41.066C103.44 41.066 103.359 41.066 103.293 41.066Z" fill="#3A6DE8"></path><path d="M99.6624 41.066C99.2151 41.066 98.8484 41.0074 98.5624 40.89C98.2837 40.7654 98.0784 40.56 97.9464 40.274C97.8144 39.9807 97.7484 39.5737 97.7484 39.0531V33.3H99.1894V38.877C99.1894 39.251 99.2407 39.504 99.3434 39.636C99.4534 39.768 99.6661 39.834 99.9814 39.834C100.062 39.834 100.132 39.834 100.19 39.834C100.249 39.8267 100.308 39.8194 100.366 39.812V41.022C100.33 41.0367 100.267 41.0477 100.179 41.055C100.091 41.0624 99.9997 41.066 99.9044 41.066C99.8091 41.066 99.7284 41.066 99.6624 41.066Z" fill="#3A6DE8"></path><path d="M93.9416 41.1321C93.4136 41.1321 92.9259 41.0258 92.4786 40.8131C92.0386 40.5931 91.6866 40.2631 91.4226 39.8231C91.1586 39.3758 91.0266 38.8148 91.0266 38.1401V37.9201C91.0266 37.2748 91.1513 36.7394 91.4006 36.3141C91.6573 35.8888 91.9983 35.5698 92.4236 35.3571C92.8489 35.1444 93.3183 35.0381 93.8316 35.0381C94.7483 35.0381 95.4449 35.2801 95.9216 35.7641C96.3983 36.2481 96.6366 36.9484 96.6366 37.8651V38.4811H92.5116C92.5263 38.8258 92.5996 39.1081 92.7316 39.3281C92.8709 39.5408 93.0469 39.6984 93.2596 39.8011C93.4723 39.8964 93.6996 39.9441 93.9416 39.9441C94.3156 39.9441 94.5979 39.8891 94.7886 39.7791C94.9793 39.6691 95.1149 39.5078 95.1956 39.2951H96.5266C96.4093 39.9038 96.1196 40.3621 95.6576 40.6701C95.1956 40.9781 94.6236 41.1321 93.9416 41.1321ZM93.8866 36.2261C93.6593 36.2261 93.4393 36.2628 93.2266 36.3361C93.0139 36.4094 92.8453 36.5414 92.7206 36.7321C92.5959 36.9154 92.5263 37.1611 92.5116 37.4691H95.2286C95.2213 37.1391 95.1553 36.8861 95.0306 36.7101C94.9133 36.5268 94.7556 36.4021 94.5576 36.3361C94.3596 36.2628 94.1359 36.2261 93.8866 36.2261Z" fill="#3A6DE8"></path><path d="M89.3159 41.0661C88.8613 41.0661 88.4873 41.0038 88.1939 40.8791C87.9006 40.7471 87.6843 40.5381 87.5449 40.2521C87.4129 39.9661 87.3469 39.5958 87.3469 39.1411V36.3801H86.5659V35.1701H87.3469V33.8501H88.7879V35.1701H90.1959V36.3801H88.7879V38.9101C88.7879 39.2401 88.8466 39.4784 88.9639 39.6251C89.0886 39.7644 89.3159 39.8341 89.6459 39.8341C89.8659 39.8341 90.0859 39.8231 90.3059 39.8011V41.0111C90.1666 41.0258 90.0199 41.0368 89.8659 41.0441C89.7193 41.0588 89.5359 41.0661 89.3159 41.0661Z" fill="#3A6DE8"></path><path d="M80.3019 41.0001V35.1701H81.6219V36.0281C81.7685 35.7641 81.9959 35.5331 82.3039 35.3351C82.6119 35.1371 83.0335 35.0381 83.5689 35.0381C84.2802 35.0381 84.8082 35.2288 85.1529 35.6101C85.5049 35.9914 85.6809 36.5414 85.6809 37.2601V41.0001H84.2289V37.5901C84.2289 37.1574 84.1372 36.8311 83.9539 36.6111C83.7779 36.3838 83.4735 36.2701 83.0409 36.2701C82.7329 36.2701 82.4835 36.3324 82.2929 36.4571C82.1022 36.5818 81.9629 36.7431 81.8749 36.9411C81.7869 37.1391 81.7429 37.3554 81.7429 37.5901V41.0001H80.3019Z" fill="#3A6DE8"></path><path d="M77.001 41V33.3H78.64V41H77.001Z" fill="#3A6DE8"></path><defs><linearGradient id="paint0_linear_2230_156" x1="19.618" y1="21.8722" x2="32.9768" y2="22.6833" gradientUnits="userSpaceOnUse"><stop stop-color="#FF7A1A"></stop><stop offset="1" stop-color="#3A6DE8"></stop></linearGradient><linearGradient id="paint1_linear_2230_156" x1="29.7558" y1="29.3266" x2="63.3211" y2="31.3636" gradientUnits="userSpaceOnUse"><stop stop-color="#FF7A1A"></stop><stop offset="1" stop-color="#3A6DE8"></stop></linearGradient><linearGradient id="paint2_linear_2230_156" x1="31.4142" y1="26.0874" x2="64.172" y2="28.0773" gradientUnits="userSpaceOnUse"><stop stop-color="#FF7A1A"></stop><stop offset="1" stop-color="#3A6DE8"></stop></linearGradient><linearGradient id="paint3_linear_2230_156" x1="32.2634" y1="22.8409" x2="64.5268" y2="24.7982" gradientUnits="userSpaceOnUse"><stop stop-color="#FF7A1A"></stop><stop offset="1" stop-color="#3A6DE8"></stop></linearGradient><linearGradient id="paint4_linear_2230_156" x1="26.9367" y1="32.5477" x2="61.9015" y2="34.6697" gradientUnits="userSpaceOnUse"><stop stop-color="#FF7A1A"></stop><stop offset="1" stop-color="#3A6DE8"></stop></linearGradient><linearGradient id="paint5_linear_2230_156" x1="27.1321" y1="39.1728" x2="56.428" y2="40.9508" gradientUnits="userSpaceOnUse"><stop stop-color="#FF7A1A"></stop><stop offset="1" stop-color="#3A6DE8"></stop></linearGradient><linearGradient id="paint6_linear_2230_156" x1="24.1519" y1="35.7544" x2="59.745" y2="37.9144" gradientUnits="userSpaceOnUse"><stop stop-color="#FF7A1A"></stop><stop offset="1" stop-color="#3A6DE8"></stop></linearGradient><linearGradient id="paint7_linear_2230_156" x1="32.7415" y1="0.602937" x2="50.9926" y2="1.71104" gradientUnits="userSpaceOnUse"><stop stop-color="#FF7A1A"></stop><stop offset="1" stop-color="#3A6DE8"></stop></linearGradient><linearGradient id="paint8_linear_2230_156" x1="27.2245" y1="3.42379" x2="56.5204" y2="5.20182" gradientUnits="userSpaceOnUse"><stop stop-color="#FF7A1A"></stop><stop offset="1" stop-color="#3A6DE8"></stop></linearGradient><linearGradient id="paint9_linear_2230_156" x1="24.2008" y1="6.44954" x2="59.8446" y2="8.61142" gradientUnits="userSpaceOnUse"><stop stop-color="#FF7A1A"></stop><stop offset="1" stop-color="#3A6DE8"></stop></linearGradient><linearGradient id="paint10_linear_2230_156" x1="32.6618" y1="42.6636" x2="50.9129" y2="43.7717" gradientUnits="userSpaceOnUse"><stop stop-color="#FF7A1A"></stop><stop offset="1" stop-color="#3A6DE8"></stop></linearGradient><linearGradient id="paint11_linear_2230_156" x1="31.3092" y1="16.2882" x2="64.2788" y2="18.289" gradientUnits="userSpaceOnUse"><stop stop-color="#FF7A1A"></stop><stop offset="1" stop-color="#3A6DE8"></stop></linearGradient><linearGradient id="paint12_linear_2230_156" x1="32.1584" y1="19.5692" x2="64.6246" y2="21.5391" gradientUnits="userSpaceOnUse"><stop stop-color="#FF7A1A"></stop><stop offset="1" stop-color="#3A6DE8"></stop></linearGradient><linearGradient id="paint13_linear_2230_156" x1="29.6508" y1="12.995" x2="63.4279" y2="15.0446" gradientUnits="userSpaceOnUse"><stop stop-color="#FF7A1A"></stop><stop offset="1" stop-color="#3A6DE8"></stop></linearGradient><linearGradient id="paint14_linear_2230_156" x1="26.8334" y1="9.67954" x2="62.0084" y2="11.8143" gradientUnits="userSpaceOnUse"><stop stop-color="#FF7A1A"></stop><stop offset="1" stop-color="#3A6DE8"></stop></linearGradient><linearGradient id="paint15_linear_2230_156" x1="3.40944" y1="32.9732" x2="23.7481" y2="34.208" gradientUnits="userSpaceOnUse"><stop stop-color="#FF7A1A"></stop><stop offset="1" stop-color="#3A6DE8"></stop></linearGradient><linearGradient id="paint16_linear_2230_156" x1="0.0615238" y1="26.4478" x2="20.8076" y2="27.708" gradientUnits="userSpaceOnUse"><stop stop-color="#FF7A1A"></stop><stop offset="1" stop-color="#3A6DE8"></stop></linearGradient><linearGradient id="paint17_linear_2230_156" x1="7.11753" y1="36.5637" x2="25.0898" y2="37.6537" gradientUnits="userSpaceOnUse"><stop stop-color="#FF7A1A"></stop><stop offset="1" stop-color="#3A6DE8"></stop></linearGradient><linearGradient id="paint18_linear_2230_156" x1="7.24971" y1="6.71367" x2="25.1712" y2="7.80005" gradientUnits="userSpaceOnUse"><stop stop-color="#FF7A1A"></stop><stop offset="1" stop-color="#3A6DE8"></stop></linearGradient><linearGradient id="paint19_linear_2230_156" x1="1.26927" y1="29.7086" x2="21.9592" y2="30.9652" gradientUnits="userSpaceOnUse"><stop stop-color="#FF7A1A"></stop><stop offset="1" stop-color="#3A6DE8"></stop></linearGradient><linearGradient id="paint20_linear_2230_156" x1="1.3743" y1="13.4078" x2="21.8524" y2="14.6499" gradientUnits="userSpaceOnUse"><stop stop-color="#FF7A1A"></stop><stop offset="1" stop-color="#3A6DE8"></stop></linearGradient><linearGradient id="paint21_linear_2230_156" x1="3.51265" y1="10.1539" x2="23.6413" y2="11.3761" gradientUnits="userSpaceOnUse"><stop stop-color="#FF7A1A"></stop><stop offset="1" stop-color="#3A6DE8"></stop></linearGradient><linearGradient id="paint22_linear_2230_156" x1="0.16835" y1="16.6684" x2="20.7026" y2="17.916" gradientUnits="userSpaceOnUse"><stop stop-color="#FF7A1A"></stop><stop offset="1" stop-color="#3A6DE8"></stop></linearGradient><linearGradient id="paint23_linear_2230_156" x1="-0.418253" y1="23.1922" x2="20.192" y2="24.4433" gradientUnits="userSpaceOnUse"><stop stop-color="#FF7A1A"></stop><stop offset="1" stop-color="#3A6DE8"></stop></linearGradient><linearGradient id="paint24_linear_2230_156" x1="-0.315048" y1="19.9367" x2="20.087" y2="21.1752" gradientUnits="userSpaceOnUse"><stop stop-color="#FF7A1A"></stop><stop offset="1" stop-color="#3A6DE8"></stop></linearGradient></defs></svg> 