<?xml version="1.0" encoding="UTF-8"?> <svg xmlns="http://www.w3.org/2000/svg" width="360" height="30" viewBox="0 0 360 30" fill="none"> <rect width="98.9831" height="30" rx="15" fill="url(#paint0_linear_2169_2040)"></rect> <path d="M81.4393 21.408C80.7553 21.408 80.1733 21.282 79.6933 21.03C79.2133 20.766 78.8473 20.406 78.5953 19.95C78.3433 19.494 78.2173 18.978 78.2173 18.402C78.2173 17.442 78.4993 16.722 79.0633 16.242C79.6393 15.762 80.4973 15.522 81.6373 15.522H84.4813V15.072C84.4813 14.448 84.3373 14.01 84.0493 13.758C83.7733 13.506 83.3293 13.38 82.7173 13.38C82.1773 13.38 81.7873 13.476 81.5473 13.668C81.3073 13.848 81.1693 14.076 81.1333 14.352H78.7573C78.7933 13.8 78.9673 13.308 79.2793 12.876C79.6033 12.432 80.0593 12.084 80.6473 11.832C81.2473 11.568 81.9673 11.436 82.8073 11.436C83.6233 11.436 84.3313 11.556 84.9313 11.796C85.5433 12.036 86.0173 12.426 86.3533 12.966C86.6893 13.494 86.8573 14.208 86.8573 15.108V18.762C86.8573 19.266 86.8633 19.71 86.8753 20.094C86.8993 20.466 86.9353 20.832 86.9833 21.192H84.7693C84.7213 20.928 84.6913 20.73 84.6793 20.598C84.6793 20.454 84.6793 20.244 84.6793 19.968C84.4273 20.352 84.0313 20.688 83.4913 20.976C82.9513 21.264 82.2673 21.408 81.4393 21.408ZM82.1773 19.572C82.5613 19.572 82.9273 19.506 83.2753 19.374C83.6353 19.23 83.9233 19.014 84.1393 18.726C84.3673 18.426 84.4813 18.048 84.4813 17.592V17.142H82.0873C81.6313 17.142 81.2713 17.25 81.0073 17.466C80.7553 17.67 80.6293 17.952 80.6293 18.312C80.6293 18.696 80.7613 19.002 81.0253 19.23C81.2893 19.458 81.6733 19.572 82.1773 19.572Z" fill="white"></path> <path d="M65.6401 21.1921V11.6521H68.4301L71.0761 16.8001L73.7221 11.6521H76.4041V21.1921H74.1541V14.9821L71.8321 19.3021H70.2121L67.8901 14.9821V21.1921H65.6401Z" fill="white"></path> <path d="M58.1307 21.408C57.4467 21.408 56.8647 21.282 56.3847 21.03C55.9047 20.766 55.5387 20.406 55.2867 19.95C55.0347 19.494 54.9087 18.978 54.9087 18.402C54.9087 17.442 55.1907 16.722 55.7547 16.242C56.3307 15.762 57.1887 15.522 58.3287 15.522H61.1727V15.072C61.1727 14.448 61.0287 14.01 60.7407 13.758C60.4647 13.506 60.0207 13.38 59.4087 13.38C58.8687 13.38 58.4787 13.476 58.2387 13.668C57.9987 13.848 57.8607 14.076 57.8247 14.352H55.4487C55.4847 13.8 55.6587 13.308 55.9707 12.876C56.2947 12.432 56.7507 12.084 57.3387 11.832C57.9387 11.568 58.6587 11.436 59.4987 11.436C60.3147 11.436 61.0227 11.556 61.6227 11.796C62.2347 12.036 62.7087 12.426 63.0447 12.966C63.3807 13.494 63.5487 14.208 63.5487 15.108V18.762C63.5487 19.266 63.5547 19.71 63.5667 20.094C63.5907 20.466 63.6267 20.832 63.6747 21.192H61.4607C61.4127 20.928 61.3827 20.73 61.3707 20.598C61.3707 20.454 61.3707 20.244 61.3707 19.968C61.1187 20.352 60.7227 20.688 60.1827 20.976C59.6427 21.264 58.9587 21.408 58.1307 21.408ZM58.8687 19.572C59.2527 19.572 59.6187 19.506 59.9667 19.374C60.3267 19.23 60.6147 19.014 60.8307 18.726C61.0587 18.426 61.1727 18.048 61.1727 17.592V17.142H58.7787C58.3227 17.142 57.9627 17.25 57.6987 17.466C57.4467 17.67 57.3207 17.952 57.3207 18.312C57.3207 18.696 57.4527 19.002 57.7167 19.23C57.9807 19.458 58.3647 19.572 58.8687 19.572Z" fill="white"></path> <path d="M44.6536 21.4081C44.5576 21.4081 44.4376 21.4021 44.2936 21.3901C44.1496 21.3901 44.0296 21.3781 43.9336 21.3541V19.2121C43.9696 19.2241 44.0596 19.2301 44.2036 19.2301C44.5156 19.2301 44.7676 19.1041 44.9596 18.8521C45.1636 18.5881 45.3136 18.1381 45.4096 17.5021C45.5056 16.8661 45.5536 15.9961 45.5536 14.8921V11.6521H53.1136V21.1921H50.7376V13.6321H47.7496V15.2521C47.7496 16.4881 47.6836 17.5081 47.5516 18.3121C47.4316 19.1161 47.2396 19.7461 46.9756 20.2021C46.7236 20.6461 46.4056 20.9581 46.0216 21.1381C45.6376 21.3181 45.1816 21.4081 44.6536 21.4081Z" fill="white"></path> <path d="M33.8765 21.1921V11.6521H36.2345V15.3961H37.1165L40.0685 11.6521H42.6785L39.0785 16.1701L42.8585 21.1921H40.0145L37.1165 17.2681H36.2345V21.1921H33.8765Z" fill="white"></path> <path d="M27.7368 21.408C26.8728 21.408 26.0748 21.234 25.3428 20.886C24.6228 20.526 24.0468 19.986 23.6148 19.266C23.1828 18.534 22.9668 17.616 22.9668 16.512V16.152C22.9668 15.096 23.1708 14.22 23.5788 13.524C23.9988 12.828 24.5568 12.306 25.2528 11.958C25.9488 11.61 26.7168 11.436 27.5568 11.436C29.0568 11.436 30.1968 11.832 30.9768 12.624C31.7568 13.416 32.1468 14.562 32.1468 16.062V17.07H25.3968C25.4208 17.634 25.5408 18.096 25.7568 18.456C25.9848 18.804 26.2728 19.062 26.6208 19.23C26.9688 19.386 27.3408 19.464 27.7368 19.464C28.3488 19.464 28.8108 19.374 29.1228 19.194C29.4348 19.014 29.6568 18.75 29.7888 18.402H31.9668C31.7748 19.398 31.3008 20.148 30.5448 20.652C29.7888 21.156 28.8528 21.408 27.7368 21.408ZM27.6468 13.38C27.2748 13.38 26.9148 13.44 26.5668 13.56C26.2188 13.68 25.9428 13.896 25.7388 14.208C25.5348 14.508 25.4208 14.91 25.3968 15.414H29.8428C29.8308 14.874 29.7228 14.46 29.5188 14.172C29.3268 13.872 29.0688 13.668 28.7448 13.56C28.4208 13.44 28.0548 13.38 27.6468 13.38Z" fill="white"></path> <path d="M12 21.192V8.59204H16.842C17.982 8.59204 18.924 8.76604 19.668 9.11404C20.412 9.45004 20.964 9.93004 21.324 10.554C21.684 11.166 21.864 11.892 21.864 12.732C21.864 13.572 21.684 14.304 21.324 14.928C20.964 15.54 20.412 16.02 19.668 16.368C18.924 16.704 17.982 16.872 16.842 16.872H14.682V21.192H12ZM14.682 14.64H16.572C17.532 14.64 18.204 14.478 18.588 14.154C18.984 13.83 19.182 13.356 19.182 12.732C19.182 12.12 18.984 11.652 18.588 11.328C18.204 10.992 17.532 10.824 16.572 10.824H14.682V14.64Z" fill="white"></path> <rect x="330" width="30" height="30" rx="15" fill="url(#paint1_linear_2169_2040)"></rect> <path d="M345 16.5C345.828 16.5 346.5 15.8284 346.5 15C346.5 14.1716 345.828 13.5 345 13.5C344.172 13.5 343.5 14.1716 343.5 15C343.5 15.8284 344.172 16.5 345 16.5Z" fill="white"></path> <path d="M345 11.25C345.828 11.25 346.5 10.5784 346.5 9.75C346.5 8.92157 345.828 8.25 345 8.25C344.172 8.25 343.5 8.92157 343.5 9.75C343.5 10.5784 344.172 11.25 345 11.25Z" fill="white"></path> <path d="M345 21.75C345.828 21.75 346.5 21.0784 346.5 20.25C346.5 19.4216 345.828 18.75 345 18.75C344.172 18.75 343.5 19.4216 343.5 20.25C343.5 21.0784 344.172 21.75 345 21.75Z" fill="white"></path> <defs> <linearGradient id="paint0_linear_2169_2040" x1="0" y1="0" x2="101.196" y2="13.9798" gradientUnits="userSpaceOnUse"> <stop offset="0.0001" stop-color="#FF7A1A"></stop> <stop offset="1" stop-color="#3A6DE8"></stop> </linearGradient> <linearGradient id="paint1_linear_2169_2040" x1="330" y1="0" x2="361.201" y2="1.30639" gradientUnits="userSpaceOnUse"> <stop offset="0.0001" stop-color="#FF7A1A"></stop> <stop offset="1" stop-color="#3A6DE8"></stop> </linearGradient> </defs> </svg> 