<?xml version="1.0" encoding="UTF-8"?> <svg xmlns="http://www.w3.org/2000/svg" width="654" height="540" viewBox="0 0 654 540" fill="none"> <g opacity="0.7"> <path d="M618.21 2.32178H35.29C16.9044 2.32178 2 17.2262 2 35.6118V414.058C2 432.444 16.9044 447.348 35.29 447.348H618.21C636.596 447.348 651.5 432.444 651.5 414.058V35.6118C651.5 17.2262 636.596 2.32178 618.21 2.32178Z" stroke="white" stroke-width="4" stroke-miterlimit="10"></path> <path d="M604.198 32.6023H49.3018C40.0052 32.6023 32.4688 40.1387 32.4688 49.4354V340.457C32.4688 349.753 40.0052 357.29 49.3018 357.29H604.198C613.495 357.29 621.031 349.753 621.031 340.457V49.4354C621.031 40.1387 613.495 32.6023 604.198 32.6023Z" stroke="white" stroke-width="2" stroke-miterlimit="10"></path> <path d="M250.233 504.242H403.298C421.886 504.242 436.995 519.351 436.995 537.94H216.566C216.566 519.351 231.675 504.242 250.264 504.242H250.233Z" stroke="white" stroke-width="4" stroke-miterlimit="10"></path> <path d="M651.5 392.179H2" stroke="white" stroke-width="4" stroke-miterlimit="10"></path> <path d="M621.031 74.5129H32.4688" stroke="white" stroke-width="2" stroke-miterlimit="10"></path> <path d="M271.518 447.348V504.242" stroke="white" stroke-width="4" stroke-miterlimit="10"></path> <path d="M381.982 447.348V504.242" stroke="white" stroke-width="4" stroke-miterlimit="10"></path> <path d="M325.747 433.368C334.23 433.368 341.106 426.491 341.106 418.008C341.106 409.525 334.23 402.648 325.747 402.648C317.264 402.648 310.387 409.525 310.387 418.008C310.387 426.491 317.264 433.368 325.747 433.368Z" stroke="white" stroke-width="4" stroke-miterlimit="10"></path> <path d="M60.2107 61.2846C64.3656 61.2846 67.7338 57.9164 67.7338 53.7614C67.7338 49.6065 64.3656 46.2383 60.2107 46.2383C56.0557 46.2383 52.6875 49.6065 52.6875 53.7614C52.6875 57.9164 56.0557 61.2846 60.2107 61.2846Z" stroke="white" stroke-width="2" stroke-miterlimit="10"></path> <path d="M91.8396 61.2846C95.9945 61.2846 99.3627 57.9164 99.3627 53.7614C99.3627 49.6065 95.9945 46.2383 91.8396 46.2383C87.6846 46.2383 84.3164 49.6065 84.3164 53.7614C84.3164 57.9164 87.6846 61.2846 91.8396 61.2846Z" stroke="white" stroke-width="2" stroke-miterlimit="10"></path> <path d="M123.468 61.2846C127.623 61.2846 130.992 57.9164 130.992 53.7614C130.992 49.6065 127.623 46.2383 123.468 46.2383C119.314 46.2383 115.945 49.6065 115.945 53.7614C115.945 57.9164 119.314 61.2846 123.468 61.2846Z" stroke="white" stroke-width="2" stroke-miterlimit="10"></path> </g> </svg> 