<?xml version="1.0" encoding="UTF-8"?> <svg xmlns="http://www.w3.org/2000/svg" width="76" height="60" viewBox="0 0 76 60" fill="none"> <g filter="url(#filter0_b_2170_2210)"> <rect x="16" width="60" height="60" rx="20" fill="white"></rect> </g> <path d="M0 30H24" stroke="#FF7A1A" stroke-width="3" stroke-linejoin="round"></path> <path d="M12 18L24 30L12 42" stroke="#FF7A1A" stroke-width="3" stroke-linejoin="round"></path> <path d="M57.2495 35.5249V39.945C57.2495 40.6013 56.7421 41.1458 56.0876 41.192C55.5409 41.2306 55.0949 41.2499 54.7495 41.2499C43.7038 41.2499 34.7495 32.2956 34.7495 21.2499C34.7495 20.9045 34.7688 20.4585 34.8074 19.9118C34.8537 19.2572 35.3982 18.7499 36.0543 18.7499H40.4746C40.7955 18.7499 41.0642 18.9929 41.0964 19.3121C41.1253 19.5987 41.1522 19.8288 41.1771 20.0024C41.4299 21.7683 41.9464 23.4491 42.6854 25.0037C42.804 25.2532 42.7266 25.5519 42.5018 25.7125L39.8039 27.6396C41.4464 31.4763 44.5231 34.553 48.3598 36.1955L50.2834 33.5023C50.446 33.2748 50.7483 33.1965 51.0008 33.3164C52.5553 34.0548 54.2359 34.5706 56.0015 34.8229C56.174 34.8476 56.4026 34.8743 56.6873 34.903C57.0065 34.9353 57.2495 35.204 57.2495 35.5249Z" fill="#FF7A1A"></path> <defs> <filter id="filter0_b_2170_2210" x="-84" y="-100" width="260" height="260" filterUnits="userSpaceOnUse" color-interpolation-filters="sRGB"> <feFlood flood-opacity="0" result="BackgroundImageFix"></feFlood> <feGaussianBlur in="BackgroundImageFix" stdDeviation="50"></feGaussianBlur> <feComposite in2="SourceAlpha" operator="in" result="effect1_backgroundBlur_2170_2210"></feComposite> <feBlend mode="normal" in="SourceGraphic" in2="effect1_backgroundBlur_2170_2210" result="shape"></feBlend> </filter> </defs> </svg> 