<?xml version="1.0" encoding="UTF-8"?> <svg xmlns="http://www.w3.org/2000/svg" width="269" height="11" viewBox="0 0 269 11" fill="none"> <path d="M2 5.73642C49.7459 5.73642 97.4917 5.73642 145.238 5.73642C164.862 5.73642 184.486 5.73642 204.111 5.73642C213.748 5.73642 223.675 6.42818 233.279 5.57036C244.204 4.59447 255.102 2 266 2" stroke="#3E66FF" stroke-width="4"></path> <path d="M269 4C237.487 4 205.975 4 174.462 4C161.884 4 149.307 4 136.729 4C130.152 4 123.574 4 116.996 4C108.293 4 99.7394 5.66667 91.029 5.66667C78.1487 5.66667 65.2684 5.66667 52.3881 5.66667C43.3898 5.66667 34.566 7.33333 25.6367 7.33333C20.1874 7.33333 14.738 7.33333 9.28867 7.33333C6.08828 7.33333 3.21215 9 0 9" stroke="#3E66FF" stroke-width="4"></path> </svg> 