<?xml version="1.0" encoding="UTF-8"?> <svg xmlns="http://www.w3.org/2000/svg" width="100" height="34" viewBox="0 0 100 34" fill="none"> <g filter="url(#filter0_b_2159_1521)"> <rect width="100" height="34" rx="17" fill="#3A6DE8"></rect> </g> <path d="M60.7273 25.8H63V28H38V25.8H40.2727V7.1C40.2727 6.49249 40.7815 6 41.4091 6H59.5909C60.2185 6 60.7273 6.49249 60.7273 7.1V25.8ZM45.9545 15.9V18.1H49.3636V15.9H45.9545ZM45.9545 11.5V13.7H49.3636V11.5H45.9545ZM45.9545 20.3V22.5H49.3636V20.3H45.9545ZM51.6364 20.3V22.5H55.0455V20.3H51.6364ZM51.6364 15.9V18.1H55.0455V15.9H51.6364ZM51.6364 11.5V13.7H55.0455V11.5H51.6364Z" fill="white"></path> <defs> <filter id="filter0_b_2159_1521" x="-100" y="-100" width="300" height="234" filterUnits="userSpaceOnUse" color-interpolation-filters="sRGB"> <feFlood flood-opacity="0" result="BackgroundImageFix"></feFlood> <feGaussianBlur in="BackgroundImageFix" stdDeviation="50"></feGaussianBlur> <feComposite in2="SourceAlpha" operator="in" result="effect1_backgroundBlur_2159_1521"></feComposite> <feBlend mode="normal" in="SourceGraphic" in2="effect1_backgroundBlur_2159_1521" result="shape"></feBlend> </filter> </defs> </svg> 