<?xml version="1.0" encoding="UTF-8"?> <svg xmlns="http://www.w3.org/2000/svg" width="76" height="60" viewBox="0 0 76 60" fill="none"> <g filter="url(#filter0_b_2170_2209)"> <rect x="16" width="60" height="60" rx="20" fill="white"></rect> </g> <path d="M34.75 18.75H57.25C57.9404 18.75 58.5 19.3097 58.5 20V40C58.5 40.6904 57.9404 41.25 57.25 41.25H34.75C34.0597 41.25 33.5 40.6904 33.5 40V20C33.5 19.3097 34.0597 18.75 34.75 18.75ZM56 27.5H36V38.75H56V27.5ZM37.25 22.5V25H39.75V22.5H37.25ZM42.25 22.5V25H44.75V22.5H42.25Z" fill="#FF7A1A"></path> <path d="M0 30H24" stroke="#FF7A1A" stroke-width="3" stroke-linejoin="round"></path> <path d="M12 18L24 30L12 42" stroke="#FF7A1A" stroke-width="3" stroke-linejoin="round"></path> <defs> <filter id="filter0_b_2170_2209" x="-84" y="-100" width="260" height="260" filterUnits="userSpaceOnUse" color-interpolation-filters="sRGB"> <feFlood flood-opacity="0" result="BackgroundImageFix"></feFlood> <feGaussianBlur in="BackgroundImageFix" stdDeviation="50"></feGaussianBlur> <feComposite in2="SourceAlpha" operator="in" result="effect1_backgroundBlur_2170_2209"></feComposite> <feBlend mode="normal" in="SourceGraphic" in2="effect1_backgroundBlur_2170_2209" result="shape"></feBlend> </filter> </defs> </svg> 