<?xml version="1.0" encoding="UTF-8"?> <svg xmlns="http://www.w3.org/2000/svg" width="76" height="60" viewBox="0 0 76 60" fill="none"> <g filter="url(#filter0_b_2170_2205)"> <rect x="16" width="60" height="60" rx="20" fill="white"></rect> </g> <path d="M44.75 32.5774V40H47.25V32.5774C52.1829 33.1925 56 37.4005 56 42.5H36C36 37.4005 39.8171 33.1925 44.75 32.5774ZM46 31.25C41.8562 31.25 38.5 27.8938 38.5 23.75C38.5 19.6062 41.8562 16.25 46 16.25C50.1438 16.25 53.5 19.6062 53.5 23.75C53.5 27.8938 50.1438 31.25 46 31.25Z" fill="#3A6DE8"></path> <path d="M0 30H24" stroke="#3A6DE8" stroke-width="3" stroke-linejoin="round"></path> <path d="M12 18L24 30L12 42" stroke="#3A6DE8" stroke-width="3" stroke-linejoin="round"></path> <defs> <filter id="filter0_b_2170_2205" x="-84" y="-100" width="260" height="260" filterUnits="userSpaceOnUse" color-interpolation-filters="sRGB"> <feFlood flood-opacity="0" result="BackgroundImageFix"></feFlood> <feGaussianBlur in="BackgroundImageFix" stdDeviation="50"></feGaussianBlur> <feComposite in2="SourceAlpha" operator="in" result="effect1_backgroundBlur_2170_2205"></feComposite> <feBlend mode="normal" in="SourceGraphic" in2="effect1_backgroundBlur_2170_2205" result="shape"></feBlend> </filter> </defs> </svg> 